<svg xmlns="http://www.w3.org/2000/svg" width="470" height="262" fill="none"><g fill="#2C2C2C" clip-path="url(#a)"><path d="M196.749 103.853h11.023l18.744 33.906 18.744-33.906h10.785v55.715h-8.994v-42.702l-16.436 29.569h-8.437l-16.436-29.569v42.702h-8.993v-55.715ZM285.056 160.563c-4.166 0-7.827-.922-10.984-2.766-3.157-1.844-5.618-4.397-7.382-7.661-1.765-3.263-2.647-7.004-2.646-11.222 0-4.271.862-8.052 2.586-11.342 1.725-3.29 4.119-5.863 7.184-7.721 3.064-1.857 6.586-2.785 10.566-2.786 3.952 0 7.355.936 10.207 2.806 2.852 1.871 5.047 4.491 6.587 7.86 1.538 3.37 2.307 7.323 2.308 11.859v2.467h-30.524c.557 3.397 1.93 6.07 4.119 8.019 2.189 1.951 4.955 2.926 8.297 2.925 2.68 0 4.988-.398 6.925-1.193 1.936-.796 3.754-2.003 5.452-3.622l4.776 5.85c-4.75 4.352-10.573 6.528-17.471 6.527Zm6.567-33.051c-1.885-1.923-4.352-2.885-7.403-2.885-2.971 0-5.459.981-7.461 2.945-2.004 1.963-3.271 4.603-3.801 7.919h21.888c-.265-3.396-1.34-6.056-3.223-7.979ZM314.387 125.423h-8.278v-7.363h8.278v-12.177h8.676v12.177h12.575v7.363h-12.575v18.664c0 3.104.53 5.319 1.591 6.646s2.878 1.99 5.453 1.99c1.14 0 2.108-.047 2.905-.139a53.707 53.707 0 0 0 2.626-.379v7.283c-1.09.315-2.2.555-3.323.717a26.112 26.112 0 0 1-3.88.278c-9.366 0-14.048-5.12-14.048-15.361v-19.699ZM380.848 159.568h-8.517v-5.81c-1.512 2.176-3.435 3.854-5.77 5.034-2.335 1.18-4.988 1.77-7.959 1.771-3.661 0-6.905-.935-9.73-2.806-2.826-1.87-5.048-4.444-6.666-7.72-1.619-3.277-2.428-7.024-2.428-11.243 0-4.244.823-7.999 2.468-11.262 1.644-3.263 3.919-5.823 6.825-7.681 2.905-1.857 6.241-2.785 10.008-2.786 2.839 0 5.386.551 7.641 1.652a15.098 15.098 0 0 1 5.611 4.676v-5.333h8.517v41.508Zm-8.676-26.982c-.929-2.361-2.395-4.225-4.397-5.592-2.004-1.366-4.318-2.049-6.945-2.049-3.714 0-6.673 1.247-8.874 3.741-2.203 2.494-3.304 5.863-3.303 10.108 0 4.272 1.061 7.655 3.183 10.149 2.123 2.494 5.001 3.74 8.636 3.74 2.68 0 5.067-.69 7.164-2.069 2.095-1.379 3.607-3.236 4.536-5.572v-12.456ZM99.53 140.645c0 3.368.739 5.955 1.705 7.519 1.267 2.05 3.157 2.918 5.084 2.918 2.485 0 4.758-.617 9.139-6.676 3.51-4.857 7.646-11.674 10.429-15.948l4.712-7.24c3.274-5.028 7.063-10.618 11.407-14.407 3.547-3.093 7.372-4.811 11.223-4.811 6.464 0 12.622 3.746 17.334 10.772 5.157 7.694 7.661 17.386 7.661 27.388 0 5.946-1.172 10.315-3.166 13.766-1.927 3.338-5.682 6.673-11.999 6.673v-9.517c5.409 0 6.759-4.97 6.759-10.658 0-8.106-1.89-17.101-6.054-23.529-2.954-4.559-6.783-7.345-10.995-7.345-4.556 0-8.223 3.436-12.343 9.563-2.191 3.256-4.439 7.222-6.964 11.699l-2.78 4.924c-5.584 9.9-6.998 12.155-9.79 15.877-4.894 6.516-9.072 8.986-14.573 8.986-6.526 0-10.652-2.826-13.208-7.084-2.086-3.47-3.111-8.023-3.111-13.211l9.53.341Z"/><path d="M97.513 113.444c4.369-6.735 10.674-11.444 17.905-11.444 4.188 0 8.352 1.239 12.699 4.789 4.755 3.881 9.824 10.272 16.147 20.804l2.267 3.78c5.474 9.118 8.588 13.809 10.41 16.021 2.344 2.841 3.985 3.688 6.118 3.688 5.409 0 6.758-4.97 6.758-10.658l8.407-.264c0 5.946-1.172 10.315-3.166 13.766-1.927 3.338-5.682 6.673-11.999 6.673-3.927 0-7.407-.853-11.254-4.482-2.957-2.786-6.415-7.735-9.075-12.183l-7.912-13.217c-3.97-6.633-7.612-11.579-9.72-13.819-2.267-2.408-5.182-5.317-9.833-5.317-3.764 0-6.961 2.642-9.637 6.683l-8.115-4.82Z"/><path d="M115.265 111.581c-3.764 0-6.961 2.642-9.637 6.683-3.782 5.709-6.099 14.214-6.099 22.381 0 3.368.74 5.955 1.706 7.519l-8.124 5.351c-2.086-3.47-3.111-8.023-3.111-13.211 0-9.434 2.59-19.267 7.514-26.86 4.368-6.735 10.673-11.444 17.904-11.444l-.153 9.581Z"/></g><defs><clipPath id="a"><path fill="#fff" d="M90 102h290.848v58.599H90z"/></clipPath></defs></svg>