<svg width="470" height="262" viewBox="0 0 470 262" fill="none" xmlns="http://www.w3.org/2000/svg">
<g clip-path="url(#clip0_1_187)">
<path d="M185.974 108.13C171.262 108.13 166.754 117.415 166.754 122.551H176.904C177.25 119.837 179.776 116.718 186.318 116.718C192.978 116.718 195.584 120.904 195.584 126.198H190.635C174.099 126.198 164.771 130.781 164.771 140.953C164.771 148.217 171.924 154.685 181.22 154.685C187.073 154.685 193.384 151.899 195.556 150.127L195.705 153.513H205.539V128.505C205.539 115.913 200.512 108.13 185.974 108.13ZM192.124 134.125H195.407V136.627C195.407 141.848 190.598 145.716 183.285 145.716C178.821 145.716 175.387 144.391 175.387 141.251C175.387 136.93 178.487 134.125 192.124 134.125Z" fill="white"/>
<path d="M211.307 153.509V109.081H227.181L235.393 141.356L243.613 109.081H259.473V153.509H249.122V121.508L240.089 153.509H230.555L221.601 121.576V153.509H211.307Z" fill="white"/>
<path d="M296.455 136.843H306.558C305.06 145.243 297.533 154.705 285.695 154.705C270.781 154.705 264.228 141.655 264.228 131.526C264.228 117.799 272.805 108.161 285.616 108.161C296.87 108.161 304.771 116.418 306.426 125.971H296.508C295.351 122.295 291.795 117.332 285.616 117.332C278.655 117.332 273.909 124.338 273.909 131.314C273.909 139.692 279.558 145.482 285.59 145.482C291.104 145.482 295.138 141.162 296.455 136.843Z" fill="white"/>
<path d="M144 79.9999V80.7715V182.415H326.293V79.9999H144ZM145.543 81.5431H324.75V180.872H145.543V81.5431Z" fill="white"/>
</g>
<defs>
<clipPath id="clip0_1_187">
<rect width="182.293" height="102.415" fill="white" transform="translate(144 80)"/>
</clipPath>
</defs>
</svg>
