<svg xmlns="http://www.w3.org/2000/svg" width="470" height="262" fill="none"><g fill="#2C2C2C" clip-path="url(#a)"><path d="m356.02 107.771-8.345 13.54h12.676v33.38h15.556v-33.38h14.288v-13.54H356.02Zm-46.469 0v46.92h15.841v-14.477h16.115v-13.137h-16.115v-5.768h16.752l8.464-13.538h-41.057Zm-21.99 46.92h16.129v-46.92h-16.129v46.92Zm-20.031-46.92-3.386 25.075-6.076-25.075h-12.865l-6.078 25.075-3.376-25.075h-15.637l7.72 46.92h17.254l6.551-21.067 6.552 21.067h17.256l7.716-46.92H267.53Zm-87.383 0v13.542h13.517l-14.607 23.494v9.884h38.88v-13.539h-18.59l20.765-33.381h-39.965ZM133.701 143.262h-8.103l29.215-48.123H89.937C83.343 95.139 78 100.526 78 107.17c0 6.645 5.345 12.03 11.937 12.03h8.065l-18.279 30.109S78 151.841 78 155.49c0 6.536 5.257 11.833 11.74 11.833h43.961c6.594 0 11.937-5.387 11.937-12.031 0-6.643-5.343-12.03-11.937-12.03Z"/></g><defs><clipPath id="a"><path fill="#fff" d="M78 95h314v72.462H78z"/></clipPath></defs></svg>