<svg xmlns="http://www.w3.org/2000/svg" width="470" height="262" fill="none"><g fill="#2C2C2C" clip-path="url(#a)"><path fill-rule="evenodd" d="M239.738 150.521c31.898-16.949 54.576-21.995 57.255-15.327h-.011c3.424 8.1-8.6 25.419-43.362 44.487-25.607 14.205-57.433 18.504-60.308 12.399-2.856-5.734 15.463-24.985 46.426-41.559Zm-24.857 31.252c2.413.965 5 1.419 7.597 1.332h.009c10.84-.373 19.25-9.218 19.126-19.812a18.114 18.114 0 0 0-2.013-8.109c-13.134 6.988-23.913 15.088-31.139 22.314a18.777 18.777 0 0 0 6.42 4.275Z" clip-rule="evenodd"/><path d="M173.574 197.313c1.438 1.438 2.677 2.49 6.291 3.798l.863.374h-21.234a2.43 2.43 0 0 1-1.784-.707 2.414 2.414 0 0 1-.709-1.783v-60.811a78.12 78.12 0 0 1 32.571-63.551l-.863 1.058c-2.182 2.68-1.808 5.234-.56 8.661.862 2.367-1.622 4.86-3.054 6.292-5.604 6.294-11.337 14.581-11.895 29.172-.575 13.333 3.425 25.172 4.673 31.463 1.437 6.668 1.618 8.848 1.805 10.093 5.046-4.313 10.466-8.474 15.814-12.212 8.847-5.731 15.814-10.093 22.117-13.334 14.016-7.536 17.631-6.665 6.478-.187-10.938 6.47-21.732 13.823-28.957 20.488-28.784 25.359-24.423 38.132-21.565 41.186M200.921 67.91a77.975 77.975 0 0 1 66.609-.866 77.983 77.983 0 0 1 42.978 50.9s-1.061-1.061-3.988-2.369c-1.995-.863-4.672-1.619-8.473-2.367-4.859-.862-9.719-1.058-15.325-4.112-9.906-5.42-23.238-28.786-44.423-34.89-10.092-2.876-18.002-1.81-21.242-1.249-1.809.377-5.233.748-6.481-.862-2.49-3.241-4.486-5.234-8.287-4.486-.497-.063-1.368.31-1.368.31M312.996 198.932v-61.058c0-1.622-.187-3.428-.187-4.676v-.747l-.186.747c-5.357 14.893-25.357 35.265-55.947 51.092-15.449 8.661-30.593 14.081-43.532 16.761-.187 0-1.437.374-1.437.374h98.796a2.419 2.419 0 0 0 2.323-1.528 2.41 2.41 0 0 0 .17-.965Z"/></g><defs><clipPath id="a"><path fill="#fff" d="M157 60h156v141.488H157z"/></clipPath></defs></svg>