<svg width="470" height="262" viewBox="0 0 470 262" fill="none" xmlns="http://www.w3.org/2000/svg">
<g clip-path="url(#clip0_1_543)">
<path fill-rule="evenodd" clip-rule="evenodd" d="M299.591 40H171.242C160.839 40 157 43.8393 157 54.2472V179.835C157 181.013 157.047 182.107 157.152 183.121C157.171 183.31 157.19 183.499 157.208 183.687L157.208 183.687C157.41 185.761 157.609 187.803 159.546 190.1C159.752 190.346 161.909 191.951 161.909 191.951C162.118 192.053 162.314 192.15 162.504 192.244C163.371 192.674 164.097 193.034 165.171 193.466L228.371 219.945C231.652 221.449 233.024 222.035 235.407 221.988V221.988H235.416H235.426V221.988C237.809 222.035 239.181 221.449 242.462 219.945L305.662 193.466C306.735 193.034 307.46 192.675 308.326 192.246C308.516 192.152 308.714 192.054 308.923 191.951C308.923 191.951 311.081 190.346 311.287 190.1C313.223 187.803 313.422 185.762 313.625 183.687L313.625 183.682L313.626 183.678L313.626 183.673C313.644 183.489 313.662 183.305 313.681 183.121C313.785 182.107 313.833 181.013 313.833 179.835V54.2472C313.833 43.8393 309.993 40 299.591 40ZM205.178 197.055H265.941L234.927 207.283L205.178 197.055ZM290.965 166.552L290.994 166.262L291.023 165.943V165.625V165.567V165.248L290.994 164.93L290.965 164.64L290.907 164.35L290.849 164.06L290.791 163.8L290.706 163.539L290.619 163.278L290.503 163.047L290.358 162.786L290.215 162.554L290.041 162.294L289.869 162.062L289.667 161.859L289.466 161.627L289.234 161.424L289.004 161.221L288.773 161.077L288.542 160.903L288.312 160.758L288.053 160.613L287.792 160.468L287.504 160.324L287.216 160.208L286.928 160.063L286.61 159.949L286.351 159.862L286.092 159.775L285.802 159.688L285.543 159.601L285.255 159.514L284.967 159.427L284.677 159.369L284.36 159.282L284.072 159.196L283.755 159.138L283.438 159.05L283.121 158.964L282.803 158.877L282.515 158.819L282.256 158.732L281.995 158.674L281.765 158.587L281.535 158.529L281.189 158.414L280.87 158.298L280.582 158.182L280.352 158.037L280.092 157.892L279.891 157.689L279.775 157.515L279.632 157.197L279.602 156.82V156.762L279.632 156.473L279.746 156.212L279.919 155.951L280.179 155.719L280.381 155.603L280.612 155.487L280.87 155.43L281.16 155.371L281.477 155.314H281.823H282.111L282.37 155.343L282.66 155.371L282.948 155.401L283.236 155.459L283.523 155.517L283.813 155.575L284.101 155.661L284.389 155.748L284.706 155.835L284.938 155.951L285.197 156.038L285.427 156.154L285.688 156.27L285.918 156.385L286.177 156.501L286.409 156.646L286.667 156.762L286.899 156.936L287.129 157.081L287.388 157.226L287.62 157.399L287.792 157.168L287.937 156.936L288.109 156.704L288.283 156.473L288.455 156.212L288.6 155.98L288.773 155.748L288.946 155.517L289.09 155.285L289.263 155.053L289.436 154.821L289.582 154.589L289.753 154.329L289.927 154.097L290.1 153.865L290.244 153.634L290.416 153.402L290.186 153.228L289.956 153.054L289.725 152.88L289.494 152.736L289.234 152.562L289.004 152.417L288.745 152.272L288.484 152.127L288.254 152.011L287.995 151.867L287.705 151.751L287.446 151.635L287.187 151.519L286.928 151.432L286.639 151.316L286.379 151.258L286.12 151.171L285.831 151.084L285.572 151.026L285.284 150.968L284.996 150.91L284.735 150.853L284.447 150.795L284.13 150.766L283.842 150.708L283.523 150.679H283.236L282.919 150.65L282.602 150.621H282.285H281.968H281.649H281.361L281.073 150.65L280.785 150.679L280.495 150.708L280.208 150.737L279.948 150.795L279.661 150.853L279.4 150.91L279.141 150.968L278.911 151.026L278.65 151.113L278.362 151.229L278.074 151.316L277.813 151.432L277.554 151.577L277.295 151.693L277.035 151.837L276.805 151.982L276.574 152.156L276.343 152.33L276.142 152.475L275.91 152.678L275.709 152.91L275.506 153.112L275.305 153.344L275.131 153.576L274.959 153.808L274.814 154.068L274.671 154.329L274.555 154.589L274.439 154.85L274.325 155.111L274.267 155.371L274.18 155.632L274.122 155.893L274.064 156.154L274.035 156.444L274.007 156.704L273.978 156.994V157.284V157.341V157.66L274.007 157.979L274.035 158.268L274.064 158.558L274.122 158.819L274.18 159.109L274.267 159.34L274.352 159.601L274.439 159.833L274.555 160.034L274.7 160.294L274.843 160.526L274.988 160.729L275.16 160.932L275.334 161.135L275.535 161.337L275.738 161.54L275.939 161.714L276.171 161.859L276.401 162.033L276.66 162.178L276.891 162.322L277.18 162.467L277.438 162.612L277.728 162.728L278.016 162.844L278.304 162.96L278.621 163.076L278.882 163.162L279.141 163.249L279.4 163.336L279.688 163.394L279.948 163.481L280.237 163.568L280.524 163.626L280.814 163.713L281.102 163.771L281.419 163.858L281.707 163.916L282.024 164.003L282.314 164.06L282.602 164.147L282.861 164.205L283.121 164.292L283.351 164.35L283.553 164.408L283.898 164.553L284.188 164.669L284.447 164.785L284.677 164.9L284.909 165.074L285.11 165.248L285.255 165.451L285.371 165.741L285.399 166.088V166.146L285.371 166.436L285.284 166.696L285.168 166.928L284.996 167.131L284.764 167.305L284.563 167.421L284.331 167.508L284.072 167.566L283.813 167.624L283.523 167.682L283.206 167.71H282.861H282.573L282.256 167.682H281.968L281.678 167.624L281.361 167.595L281.073 167.537L280.785 167.479L280.495 167.421L280.237 167.334L279.948 167.247L279.661 167.16L279.4 167.044L279.141 166.957L278.882 166.841L278.621 166.726L278.362 166.61L278.132 166.465L277.871 166.349L277.641 166.204L277.382 166.03L277.151 165.886L276.891 165.712L276.66 165.538L276.401 165.364L276.171 165.19L275.997 165.422L275.796 165.625L275.622 165.857L275.421 166.088L275.247 166.291L275.075 166.523L274.872 166.755L274.7 166.957L274.497 167.189L274.325 167.392L274.122 167.624L273.95 167.855L273.777 168.058L273.575 168.29L273.401 168.522L273.2 168.725L273.027 168.956L273.257 169.159L273.459 169.333L273.69 169.507L273.921 169.68L274.151 169.854L274.381 170.028L274.613 170.173L274.843 170.318L275.104 170.463L275.334 170.607L275.593 170.752L275.854 170.868L276.113 171.011L276.372 171.127L276.632 171.243L276.921 171.359L277.18 171.446L277.468 171.532L277.728 171.648L278.016 171.735L278.304 171.822L278.563 171.88L278.853 171.967L279.141 172.025L279.429 172.083L279.717 172.141L280.007 172.199L280.295 172.228L280.582 172.286L280.899 172.315L281.189 172.344L281.477 172.373H281.794L282.082 172.402H282.37H282.688H283.005H283.293L283.582 172.373L283.898 172.344L284.188 172.315L284.447 172.286L284.735 172.257L285.025 172.199L285.284 172.141L285.543 172.083L285.831 172.025L286.092 171.938L286.379 171.851L286.667 171.764L286.955 171.648L287.245 171.532L287.504 171.388L287.763 171.272L288.024 171.127L288.254 170.953L288.484 170.81L288.716 170.636L288.917 170.463L289.148 170.26L289.32 170.086L289.523 169.883L289.695 169.68L289.84 169.449L290.013 169.217L290.157 168.985L290.302 168.753L290.416 168.493L290.532 168.261L290.648 168L290.735 167.71L290.791 167.45L290.878 167.16L290.936 166.87L290.965 166.552ZM270.479 172.054H270.769H271.057V171.764V171.503V171.214V170.924V170.636V170.375V170.086V169.796V169.535V169.246V168.956V168.695V168.406V168.116V167.826V167.566V167.276H270.769H270.479H270.191H269.903H269.616H269.326H269.037H268.75H268.462H268.143H267.855H267.567H267.279H266.989H266.702H266.413H266.126H265.836H265.548H265.26H264.972H264.684H264.394H264.106H263.818H263.53H263.24H262.953H262.665H262.348H262.058H261.77H261.482H261.194H260.905H260.616H260.328H260.04H259.751V166.986V166.668V166.378V166.088V165.77V165.48V165.19V164.872V164.582V164.292V163.973V163.684H260.04H260.328H260.616H260.905H261.194H261.482H261.77H262.058H262.319H262.607H262.895H263.183H263.472H263.76H264.049H264.336H264.626H264.914H265.202H265.49H265.779H266.067H266.356H266.644H266.933H267.221H267.48H267.768H268.058H268.346H268.634H268.922H269.211H269.5H269.787V163.394V163.133V162.844V162.554V162.294V162.004V161.714V161.424V161.164V160.874V160.584V160.324V160.034V159.746V159.485V159.196H269.5H269.211H268.922H268.634H268.346H268.058H267.768H267.48H267.221H266.933H266.644H266.356H266.067H265.779H265.49H265.202H264.914H264.626H264.336H264.049H263.76H263.472H263.183H262.895H262.607H262.319H262.058H261.77H261.482H261.194H260.905H260.616H260.328H260.04H259.751V158.906V158.616V158.326V158.037V157.747V157.457V157.197V156.907V156.617V156.328V156.038V155.748H260.04H260.328H260.616H260.905H261.194H261.482H261.741H262.029H262.319H262.607H262.895H263.183H263.472H263.76H264.049H264.336H264.626H264.914H265.202H265.461H265.751H266.039H266.326H266.614H266.904H267.192H267.48H267.768H268.058H268.346H268.634H268.922H269.183H269.47H269.758H270.047H270.336H270.624H270.912V155.459V155.198V154.908V154.619V154.329V154.068V153.778V153.489V153.228V152.938V152.649V152.388V152.098V151.808V151.519V151.258V150.968H270.624H270.336H270.047H269.758H269.47H269.183H268.893H268.605H268.317H268.029H267.739H267.451H267.163H266.875H266.614H266.326H266.039H265.751H265.461H265.173H264.885H264.597H264.307H264.019H263.731H263.444H263.155H262.866H262.578H262.29H262.002H261.712H261.424H261.136H260.848H260.559H260.27H259.982H259.695H259.405H259.117H258.829H258.541H258.28H257.992H257.704H257.416H257.127H256.838H256.551H256.263H255.973H255.685H255.397H255.109H254.82H254.531H254.244V151.258V151.548V151.837V152.127V152.417V152.706V152.996V153.286V153.576V153.865V154.155V154.445V154.734V155.024V155.314V155.603V155.893V156.183V156.444V156.733V157.023V157.312V157.602V157.892V158.182V158.471V158.761V159.05V159.34V159.63V159.92V160.208V160.497V160.787V161.077V161.366V161.656V161.946V162.235V162.525V162.815V163.105V163.394V163.684V163.973V164.263V164.553V164.843V165.132V165.422V165.712V166.001V166.291V166.581V166.841V167.131V167.421V167.71V168V168.29V168.579V168.869V169.159V169.449V169.739V170.028V170.318V170.607V170.897V171.185V171.475V171.764V172.054H254.531H254.82H255.109H255.397H255.685H255.973H256.263H256.551H256.838H257.155H257.444H257.733H258.021H258.309H258.597H258.887H259.175H259.463H259.751H260.04H260.328H260.616H260.905H261.194H261.482H261.77H262.058H262.348H262.665H262.953H263.24H263.53H263.818H264.106H264.394H264.684H264.972H265.26H265.548H265.836H266.126H266.413H266.702H266.989H267.279H267.567H267.855H268.143H268.462H268.75H269.037H269.326H269.616H269.903H270.191H270.479ZM249.409 172.054H249.697H249.985V171.764V171.475V171.185V170.897V170.607V170.318V170.028V169.739V169.449V169.159V168.869V168.579V168.29V168V167.71V167.421V167.131V166.841V166.581V166.291V166.001V165.712V165.422V165.132V164.843V164.553V164.263V163.973V163.684V163.394V163.105V162.815V162.525V162.235V161.946V161.656V161.366V161.077V160.787V160.497V160.208V159.92V159.63V159.34V159.05V158.761V158.471V158.182V157.892V157.602V157.312V157.023V156.733V156.444V156.183V155.893V155.603V155.314V155.024V154.734V154.445V154.155V153.865V153.576V153.286V152.996V152.706V152.417V152.127V151.837V151.548V151.258V150.968H249.697H249.409H249.148H248.86H248.573H248.284H248.024H247.736H247.448H247.16H246.899H246.611H246.323H246.035H245.774H245.486H245.199H244.91H244.65H244.362H244.074L243.929 151.2L243.786 151.461L243.612 151.691L243.467 151.952L243.324 152.183L243.179 152.444L243.007 152.674L242.862 152.935L242.718 153.167L242.574 153.398L242.401 153.657L242.257 153.889L242.112 154.15L241.968 154.382L241.796 154.641L241.65 154.872L241.508 155.104L241.362 155.363L241.218 155.595L241.046 155.855L240.901 156.087L240.756 156.346L240.613 156.578L240.439 156.839L240.296 157.069L240.151 157.3L240.006 157.561L239.834 157.793L239.689 158.054L239.546 158.284L239.401 158.545L239.229 158.776L239.085 159.035L238.94 159.267L238.797 159.035L238.652 158.776L238.478 158.545L238.335 158.284L238.19 158.054L238.047 157.793L237.902 157.561L237.728 157.3L237.585 157.069L237.44 156.839L237.297 156.578L237.152 156.346L236.978 156.087L236.835 155.855L236.69 155.595L236.547 155.363L236.402 155.104L236.228 154.872L236.085 154.641L235.941 154.382L235.796 154.15L235.624 153.889L235.479 153.657L235.336 153.398L235.191 153.167L235.046 152.935L234.874 152.674L234.729 152.444L234.586 152.183L234.441 151.952L234.296 151.691L234.124 151.461L233.979 151.2L233.836 150.968H233.546H233.258H233H232.711H232.422H232.134H231.875H231.587H231.297H231.009H230.75H230.462H230.172H229.884H229.625H229.336H229.048H228.76H228.5H228.211H227.923V151.258V151.548V151.837V152.127V152.417V152.706V152.996V153.286V153.576V153.865V154.155V154.445V154.734V155.024V155.314V155.603V155.893V156.183V156.444V156.733V157.023V157.312V157.602V157.892V158.182V158.471V158.761V159.05V159.34V159.63V159.92V160.208V160.497V160.787V161.077V161.366V161.656V161.946V162.235V162.525V162.815V163.105V163.394V163.684V163.973V164.263V164.553V164.843V165.132V165.422V165.712V166.001V166.291V166.581V166.841V167.131V167.421V167.71V168V168.29V168.579V168.869V169.159V169.449V169.739V170.028V170.318V170.607V170.897V171.185V171.475V171.764V172.054H228.211H228.5H228.789H229.077H229.365H229.654H229.942H230.23H230.518H230.808H231.096H231.384H231.672H231.962H232.25H232.537H232.826H233.115H233.403V171.764V171.475V171.185V170.895V170.604V170.314V170.024V169.735V169.445V169.156V168.895V168.603V168.314V168.024V167.734V167.445V167.153V166.864V166.574V166.284V165.995V165.705V165.414V165.124V164.834V164.544V164.255V163.965V163.674V163.384V163.094V162.805V162.544V162.254V161.963V161.673V161.383V161.094V160.804V160.513V160.223V159.933V159.644L233.575 159.875L233.72 160.138L233.892 160.369L234.037 160.63L234.211 160.862L234.354 161.123L234.528 161.356L234.671 161.617L234.845 161.849L234.99 162.109L235.162 162.341L235.307 162.604L235.479 162.835L235.624 163.096L235.796 163.328L235.941 163.59L236.114 163.822L236.286 164.083L236.431 164.314L236.603 164.577L236.748 164.808L236.922 165.069L237.065 165.301L237.239 165.563L237.382 165.795L237.556 166.056L237.701 166.288L237.873 166.548L238.018 166.782L238.19 167.042L238.335 167.274L238.507 167.535L238.652 167.768L238.825 168.029H238.94L239.085 167.798L239.257 167.535L239.401 167.303L239.575 167.071L239.718 166.811L239.892 166.579L240.035 166.345L240.18 166.085L240.354 165.853L240.497 165.621L240.671 165.388L240.814 165.127L240.988 164.896L241.133 164.664L241.276 164.401L241.45 164.17L241.593 163.938L241.766 163.677L241.91 163.445L242.083 163.212L242.228 162.951L242.372 162.719L242.545 162.488L242.689 162.225L242.862 161.993L243.007 161.762L243.179 161.53L243.324 161.268L243.467 161.036L243.641 160.804L243.786 160.544L243.958 160.312L244.103 160.08L244.275 159.817L244.419 159.586V159.875V160.165V160.455V160.746V161.036V161.326V161.615V161.905V162.196V162.486V162.776V163.065V163.355V163.645V163.936V164.226V164.515V164.805V165.095V165.384V165.676V165.965V166.255V166.545V166.834V167.124V167.416V167.705V167.995V168.285V168.575V168.866V169.156V169.445V169.735V170.024V170.314V170.604V170.895V171.185V171.475V171.764V172.054H244.708H244.996H245.285H245.602H245.89H246.178H246.468H246.756H247.044H247.361H247.649H247.939H248.226H248.515H248.803H249.121H249.409ZM216.148 163.103L216.235 163.365L216.351 163.626H216.063H215.774H215.486H215.197H214.91H214.622H214.332H214.044H213.785H213.495H213.207H212.919H212.631H212.342H212.053H211.766H211.478L211.592 163.365L211.679 163.103L211.795 162.813L211.911 162.552L211.996 162.29L212.111 162.029L212.227 161.739L212.342 161.477L212.428 161.216L212.544 160.956L212.66 160.693L212.745 160.404L212.861 160.143L212.977 159.881L213.064 159.62L213.178 159.359L213.294 159.068L213.41 158.807L213.495 158.546L213.611 158.284L213.727 157.994L213.814 157.732L213.928 157.471L214.044 157.732L214.131 157.994L214.245 158.284L214.361 158.546L214.448 158.807L214.563 159.068L214.678 159.359L214.764 159.62L214.88 159.881L214.996 160.143L215.081 160.404L215.197 160.693L215.285 160.956L215.398 161.216L215.514 161.477L215.602 161.739L215.717 162.029L215.831 162.29L215.918 162.552L216.034 162.813L216.148 163.103ZM225.003 172.054H225.292H225.58L225.464 171.793L225.348 171.532L225.234 171.272L225.147 170.982L225.031 170.723L224.915 170.463L224.801 170.202L224.685 169.941L224.57 169.68L224.456 169.391L224.34 169.13L224.252 168.869L224.138 168.609L224.023 168.348L223.907 168.087L223.791 167.798L223.677 167.537L223.561 167.276L223.445 167.015L223.36 166.755L223.244 166.494L223.128 166.204L223.012 165.943L222.898 165.683L222.782 165.422L222.666 165.161L222.552 164.9L222.465 164.611L222.349 164.35L222.235 164.089L222.119 163.829L222.003 163.568L221.888 163.307L221.773 163.018L221.658 162.757L221.571 162.496L221.457 162.235L221.341 161.975L221.225 161.714L221.109 161.424L220.994 161.164L220.878 160.903L220.763 160.642L220.677 160.382L220.562 160.121L220.446 159.862L220.332 159.572L220.216 159.312L220.1 159.05L219.984 158.79L219.87 158.529L219.783 158.268L219.667 157.979L219.553 157.718L219.437 157.457L219.321 157.197L219.205 156.936L219.091 156.675L218.975 156.385L218.888 156.125L218.774 155.864L218.658 155.603L218.543 155.343L218.429 155.082L218.313 154.792L218.197 154.532L218.081 154.271L217.996 154.01L217.88 153.75L217.764 153.489L217.65 153.199L217.534 152.938L217.418 152.678L217.302 152.417L217.188 152.156L217.101 151.896L216.985 151.606L216.871 151.345L216.755 151.084L216.639 150.824H216.351H216.092H215.802H215.514H215.227H214.967H214.678H214.39H214.102H213.843H213.553H213.265H212.977H212.718H212.428H212.14H211.853H211.592H211.304L211.19 151.084L211.074 151.345L210.958 151.606L210.871 151.896L210.757 152.156L210.641 152.417L210.525 152.678L210.411 152.938L210.295 153.199L210.179 153.489L210.063 153.75L209.978 154.01L209.862 154.271L209.746 154.532L209.632 154.792L209.516 155.082L209.4 155.343L209.286 155.603L209.17 155.864L209.083 156.125L208.968 156.385L208.853 156.675L208.738 156.936L208.622 157.197L208.507 157.457L208.392 157.718L208.276 157.979L208.189 158.268L208.075 158.529L207.959 158.79L207.843 159.05L207.729 159.312L207.613 159.572L207.497 159.862L207.383 160.121L207.296 160.382L207.18 160.642L207.064 160.903L206.95 161.164L206.834 161.424L206.718 161.714L206.604 161.975L206.488 162.235L206.401 162.496L206.286 162.757L206.171 163.018L206.055 163.307L205.94 163.568L205.825 163.829L205.71 164.089L205.594 164.35L205.507 164.611L205.393 164.9L205.277 165.161L205.161 165.422L205.047 165.683L204.931 165.943L204.815 166.204L204.701 166.494L204.614 166.755L204.498 167.015L204.382 167.276L204.268 167.537L204.152 167.798L204.036 168.087L203.922 168.348L203.806 168.609L203.719 168.869L203.603 169.13L203.489 169.391L203.373 169.68L203.257 169.941L203.143 170.202L203.028 170.463L202.912 170.723L202.825 170.982L202.71 171.272L202.595 171.532L202.479 171.793L202.365 172.054H202.652H202.941H203.229H203.518H203.835H204.123H204.411H204.701H204.989H205.277H205.565H205.854H206.142H206.43H206.747H207.035H207.325H207.613H207.901H208.189L208.305 171.793L208.392 171.532L208.507 171.272L208.622 170.982L208.709 170.723L208.825 170.463L208.939 170.202L209.026 169.941L209.142 169.68L209.257 169.42L209.343 169.159L209.458 168.869L209.574 168.609L209.661 168.348L209.775 168.087H210.063H210.353H210.641H210.929H211.19H211.478H211.766H212.053H212.342H212.631H212.919H213.207H213.495H213.785H214.044H214.332H214.622H214.91H215.197H215.486H215.774H216.063H216.351H216.639H216.9H217.188H217.476H217.764H218.052L218.168 168.348L218.254 168.609L218.37 168.869L218.485 169.159L218.571 169.42L218.687 169.68L218.803 169.941L218.888 170.202L219.004 170.463L219.12 170.723L219.205 170.982L219.321 171.272L219.437 171.532L219.524 171.793L219.638 172.054H219.928H220.216H220.475H220.763H221.052H221.341H221.628H221.888H222.177H222.465H222.753H223.041H223.331H223.59H223.878H224.166H224.456H224.743H225.003ZM199.795 169.535L200.027 169.361L200.228 169.188V168.898V168.609V168.319V168.058V167.768V167.479V167.189V166.899V166.61V166.349V166.059V165.77V165.48V165.19V164.9V164.611V164.35V164.06V163.771V163.481V163.191V162.902V162.612V162.351V162.062V161.772V161.482V161.192V160.903V160.642V160.352V160.063V159.775H199.94H199.652H199.362H199.074H198.786H198.498H198.208H197.92H197.632H197.344H197.055H196.767H196.479H196.191H195.901H195.613H195.325H195.037H194.747H194.459H194.172H193.884H193.594H193.306H193.018H192.73H192.44H192.152H191.864H191.577H191.288H190.999H190.711V160.063V160.324V160.613V160.903V161.192V161.453V161.743V162.033V162.322V162.583V162.873V163.162V163.452V163.713V164.003H190.999H191.259H191.548H191.835H192.124H192.384H192.672H192.96H193.248H193.509H193.797H194.085H194.373H194.633H194.922V164.292V164.582V164.872V165.161V165.48V165.77V166.059V166.349V166.639L194.691 166.784L194.489 166.899L194.23 167.015L193.998 167.131L193.739 167.247L193.48 167.305L193.192 167.392L192.902 167.45L192.614 167.508L192.326 167.537L192.009 167.566L191.69 167.595H191.345H191.028L190.711 167.566L190.423 167.537L190.135 167.479L189.845 167.421L189.557 167.334L189.269 167.247L189.008 167.131L188.75 167.015L188.49 166.899L188.259 166.755L188.029 166.61L187.799 166.436L187.567 166.262L187.366 166.088L187.192 165.886L186.991 165.683L186.817 165.48L186.645 165.248L186.5 165.016L186.355 164.785L186.212 164.524L186.097 164.263L185.981 163.973L185.895 163.742L185.808 163.481L185.75 163.221L185.692 162.96L185.634 162.699L185.605 162.409L185.577 162.148L185.55 161.859V161.569V161.511V161.192L185.577 160.903L185.605 160.613L185.664 160.294L185.721 160.034L185.779 159.746L185.866 159.456L185.981 159.196L186.067 158.935L186.183 158.674L186.328 158.442L186.471 158.182L186.616 157.95L186.759 157.747L186.933 157.515L187.134 157.312L187.308 157.11L187.509 156.936L187.712 156.762L187.913 156.589L188.145 156.444L188.375 156.298L188.606 156.154L188.865 156.038L189.124 155.922L189.383 155.835L189.644 155.748L189.903 155.69L190.191 155.632L190.452 155.603L190.74 155.575H191.028H191.345L191.663 155.603L191.98 155.632L192.268 155.661L192.556 155.719L192.844 155.777L193.105 155.835L193.364 155.922L193.623 156.009L193.855 156.096L194.085 156.212L194.316 156.328L194.575 156.473L194.806 156.617L195.037 156.762L195.267 156.907L195.497 157.081L195.729 157.226L195.959 157.428L196.191 157.602L196.363 157.371L196.566 157.168L196.738 156.936L196.941 156.704L197.113 156.473L197.286 156.27L197.488 156.038L197.661 155.806L197.863 155.575L198.036 155.371L198.208 155.14L198.411 154.908L198.583 154.705L198.757 154.473L198.958 154.242L199.132 154.01L199.333 153.808L199.507 153.576L199.277 153.402L199.045 153.199L198.815 153.025L198.583 152.851L198.353 152.706L198.123 152.533L197.863 152.388L197.632 152.243L197.374 152.098L197.142 151.953L196.883 151.837L196.624 151.693L196.363 151.577L196.104 151.461L195.845 151.345L195.584 151.258L195.354 151.171L195.095 151.113L194.835 151.026L194.575 150.968L194.316 150.91L194.056 150.853L193.768 150.795L193.48 150.737L193.219 150.708L192.902 150.65L192.614 150.621H192.326L192.009 150.592L191.69 150.563H191.373H191.057H190.769H190.452L190.162 150.592L189.874 150.621L189.586 150.65L189.298 150.679L189.008 150.737L188.72 150.766L188.432 150.824L188.173 150.91L187.884 150.968L187.625 151.055L187.366 151.113L187.105 151.229L186.817 151.316L186.587 151.403L186.299 151.548L186.038 151.664L185.779 151.78L185.52 151.924L185.26 152.069L185.001 152.214L184.771 152.359L184.539 152.504L184.309 152.678L184.077 152.822L183.847 152.996L183.646 153.17L183.414 153.373L183.213 153.546L183.01 153.75L182.809 153.952L182.635 154.155L182.434 154.357L182.26 154.561L182.088 154.792L181.914 155.024L181.743 155.256L181.597 155.487L181.453 155.719L181.31 155.951L181.165 156.183L181.02 156.444L180.906 156.704L180.79 156.965L180.674 157.226L180.56 157.486L180.444 157.776L180.357 158.037L180.27 158.326L180.185 158.587L180.127 158.877L180.04 159.166L179.982 159.427L179.953 159.717L179.896 160.005L179.866 160.324L179.839 160.613V160.903L179.81 161.221V161.511V161.569V161.859V162.178L179.839 162.467L179.866 162.757L179.896 163.047L179.924 163.307L179.982 163.597L180.011 163.858L180.069 164.147L180.156 164.408L180.214 164.698L180.299 164.958L180.357 165.219L180.473 165.48L180.56 165.712L180.674 165.972L180.79 166.233L180.906 166.494L181.02 166.755L181.165 166.986L181.31 167.247L181.453 167.479L181.597 167.71L181.77 167.942L181.914 168.174L182.088 168.377L182.26 168.609L182.434 168.811L182.635 169.014L182.838 169.217L183.039 169.391L183.242 169.593L183.443 169.767L183.646 169.941L183.876 170.115L184.106 170.288L184.338 170.463L184.568 170.607L184.8 170.752L185.059 170.897L185.288 171.04L185.55 171.185L185.808 171.301L186.067 171.417L186.328 171.532L186.616 171.648L186.875 171.735L187.134 171.851L187.395 171.938L187.683 171.996L187.942 172.083L188.231 172.141L188.49 172.199L188.778 172.257L189.066 172.315L189.356 172.344L189.644 172.373L189.932 172.402L190.249 172.431L190.537 172.459H190.827H191.143H191.461H191.778L192.094 172.431L192.384 172.402L192.701 172.373L192.989 172.344L193.306 172.315L193.594 172.286L193.884 172.228L194.172 172.17L194.431 172.112L194.721 172.054L194.979 171.967L195.267 171.88L195.526 171.793L195.787 171.706L196.046 171.619L196.305 171.503L196.595 171.388L196.854 171.272L197.142 171.156L197.401 171.011L197.661 170.897L197.92 170.752L198.179 170.607L198.44 170.463L198.67 170.318L198.902 170.173L199.132 169.999L199.362 169.854L199.594 169.68L199.795 169.535ZM190.751 103.259H203.251V93.5909H190.751V73.853H203.748V64.1847H180.137V133.962H203.946V124.294H190.751V103.259ZM280.279 121.104V105.354H290.695V121.601C290.695 130.275 286.431 134.56 277.8 134.56H272.541C263.912 134.56 259.645 130.275 259.645 121.601V76.5452C259.645 67.8721 263.912 63.5863 272.541 63.5863H277.701C286.33 63.5863 290.496 67.7732 290.496 76.4447V90.7007H280.081V77.0428C280.081 74.2517 278.791 72.9567 276.113 72.9567H274.327C271.549 72.9567 270.259 74.2517 270.259 77.0428V121.104C270.259 123.895 271.549 125.19 274.327 125.19H276.312C278.989 125.19 280.279 123.895 280.279 121.104ZM243.42 133.962H254.035V64.1846H243.42V133.962ZM224.05 99.2738C226.729 99.2738 228.017 97.9771 228.017 95.1857V77.6411C228.017 74.8503 226.729 73.555 224.05 73.555H219.684V99.2738H224.05ZM209.07 64.1846H225.735C234.366 64.1846 238.631 68.4704 238.631 77.1435V95.6852C238.631 104.357 234.366 108.642 225.735 108.642H219.684V133.962H209.07V64.1846Z" fill="white"/>
</g>
<defs>
<clipPath id="clip0_1_543">
<rect width="156.833" height="181.99" fill="white" transform="translate(157 40)"/>
</clipPath>
</defs>
</svg>
