<svg xmlns="http://www.w3.org/2000/svg" width="470" height="262" fill="none" viewBox="0 0 470 262"><g fill="#fff" clip-path="url(#a)"><path d="M196.749 103.853h11.023l18.744 33.906 18.744-33.906h10.785v55.715h-8.994v-42.702l-16.436 29.569h-8.437l-16.436-29.569v42.702h-8.993zm88.307 56.71q-6.249 0-10.984-2.766t-7.382-7.661-2.646-11.222q0-6.407 2.586-11.342 2.587-4.934 7.184-7.721 4.596-2.785 10.566-2.786 5.928 0 10.207 2.806 4.278 2.807 6.587 7.86 2.307 5.055 2.308 11.859v2.467h-30.524q.835 5.095 4.119 8.019 3.284 2.927 8.297 2.925 4.02 0 6.925-1.193 2.904-1.194 5.452-3.622l4.776 5.85q-7.125 6.528-17.471 6.527m6.567-33.051q-2.827-2.885-7.403-2.885-4.457 0-7.461 2.945-3.006 2.945-3.801 7.919h21.888q-.398-5.094-3.223-7.979m22.764-2.089h-8.278v-7.363h8.278v-12.177h8.676v12.177h12.575v7.363h-12.575v18.664q0 4.656 1.591 6.646t5.453 1.99q1.71 0 2.905-.139a54 54 0 0 0 2.626-.379v7.283q-1.637.473-3.323.717a26 26 0 0 1-3.88.278q-14.048 0-14.048-15.361zm66.461 34.145h-8.517v-5.81q-2.268 3.264-5.77 5.034t-7.959 1.771q-5.492 0-9.73-2.806t-6.666-7.72-2.428-11.243q0-6.367 2.468-11.262 2.466-4.894 6.825-7.681 4.357-2.785 10.008-2.786 4.258 0 7.641 1.652a15.1 15.1 0 0 1 5.611 4.676v-5.333h8.517zm-8.676-26.982q-1.394-3.541-4.397-5.592-3.005-2.049-6.945-2.049-5.572 0-8.874 3.741-3.304 3.74-3.303 10.108 0 6.408 3.183 10.149 3.184 3.74 8.636 3.74 4.02 0 7.164-2.069 3.143-2.068 4.536-5.572zM99.53 140.645c0 3.368.739 5.955 1.705 7.519 1.267 2.05 3.157 2.918 5.084 2.918 2.485 0 4.758-.617 9.139-6.676 3.51-4.857 7.646-11.674 10.429-15.948l4.712-7.24c3.274-5.028 7.063-10.618 11.407-14.407 3.547-3.093 7.372-4.811 11.223-4.811 6.464 0 12.622 3.746 17.334 10.772 5.157 7.694 7.661 17.386 7.661 27.388 0 5.946-1.172 10.315-3.166 13.766-1.927 3.338-5.682 6.673-11.999 6.673v-9.517c5.409 0 6.759-4.97 6.759-10.658 0-8.106-1.89-17.101-6.054-23.529-2.954-4.559-6.783-7.345-10.995-7.345-4.556 0-8.223 3.436-12.343 9.563-2.191 3.256-4.439 7.222-6.964 11.699l-2.78 4.924c-5.584 9.9-6.998 12.155-9.79 15.877-4.894 6.516-9.072 8.986-14.573 8.986-6.526 0-10.652-2.826-13.208-7.084-2.086-3.47-3.111-8.023-3.111-13.211z"/><path d="M97.514 113.444c4.368-6.735 10.673-11.444 17.904-11.444 4.188 0 8.352 1.239 12.699 4.789 4.755 3.881 9.824 10.272 16.147 20.804l2.267 3.78c5.474 9.118 8.588 13.809 10.41 16.021 2.344 2.841 3.985 3.688 6.118 3.688 5.409 0 6.758-4.97 6.758-10.658l8.407-.264c0 5.946-1.172 10.315-3.166 13.766-1.927 3.338-5.682 6.673-11.999 6.673-3.927 0-7.407-.853-11.254-4.482-2.957-2.786-6.415-7.735-9.075-12.183l-7.912-13.217c-3.97-6.633-7.612-11.579-9.72-13.819-2.267-2.408-5.182-5.317-9.833-5.317-3.764 0-6.961 2.642-9.637 6.683z"/><path d="M115.265 111.581c-3.764 0-6.961 2.642-9.637 6.683-3.782 5.709-6.099 14.214-6.099 22.381 0 3.368.74 5.955 1.706 7.519l-8.124 5.351c-2.086-3.47-3.111-8.023-3.111-13.211 0-9.434 2.59-19.267 7.514-26.86 4.368-6.735 10.673-11.444 17.904-11.444z"/></g><defs><clipPath id="a"><path fill="#fff" d="M90 102h290.848v58.599H90z"/></clipPath></defs></svg>