<svg xmlns="http://www.w3.org/2000/svg" width="470" height="262" fill="none" viewBox="0 0 470 262"><path fill="#fff" d="M298.049 101.254c-.957.743-17.854 10.264-17.854 31.436 0 24.488 21.501 33.152 22.145 33.366-.099.528-3.416 11.865-11.337 23.416-7.062 10.165-14.439 20.313-25.66 20.313s-14.109-6.518-27.062-6.518c-12.624 0-17.113 6.733-27.377 6.733s-17.425-9.406-25.66-20.957C175.706 175.479 168 154.406 168 134.406c0-32.079 20.858-49.092 41.386-49.092 10.908 0 20 7.161 26.848 7.161 6.518 0 16.683-7.59 29.093-7.59 4.703 0 21.6.428 32.722 16.369m-38.613-29.95c5.132-6.09 8.762-14.538 8.762-22.987 0-1.172-.099-2.36-.314-3.317-8.349.313-18.283 5.561-24.273 12.508-4.703 5.347-9.093 13.796-9.093 22.36 0 1.287.215 2.574.314 2.987.528.099 1.386.214 2.244.214 7.492 0 16.914-5.016 22.36-11.765"/></svg>