<svg xmlns="http://www.w3.org/2000/svg" width="470" height="262" fill="none" viewBox="0 0 470 262"><path fill="#fff" fill-rule="evenodd" d="M296.068 44.996H174.765c-9.832 0-13.46 3.629-13.46 13.465v118.693c0 1.114.044 2.147.143 3.106l.053.535c.191 1.96.379 3.89 2.21 6.061.195.232 2.233 1.749 2.233 1.749l.563.277c.819.406 1.505.747 2.52 1.155l59.731 25.025c3.101 1.422 4.397 1.976 6.649 1.931h.018c2.253.045 3.549-.509 6.65-1.931l59.731-25.025c1.014-.408 1.699-.748 2.517-1.153l.565-.279s2.039-1.517 2.234-1.749c1.83-2.171 2.018-4.1 2.21-6.061v-.014l.052-.521c.099-.959.144-1.992.144-3.106V58.461c0-9.837-3.629-13.465-13.46-13.465m-89.23 148.433h57.427l-29.311 9.666zm81.077-28.829.028-.274.027-.301v-.657l-.027-.301-.028-.274-.054-.274-.055-.274-.055-.246-.08-.246-.083-.247-.109-.218-.137-.247-.135-.219-.165-.246-.162-.219-.191-.192-.19-.219-.219-.192-.218-.192-.218-.136-.218-.165-.218-.137-.245-.137-.246-.137-.273-.136-.272-.109-.272-.137-.3-.108-.245-.082-.245-.083-.274-.082-.245-.082-.272-.082-.272-.082-.274-.055-.3-.083-.272-.081-.3-.055-.299-.083-.3-.081-.3-.082-.273-.055-.244-.082-.247-.055-.217-.082-.218-.055-.327-.109-.301-.11-.273-.109-.217-.137-.246-.137-.19-.192-.109-.165-.135-.3-.029-.356v-.055l.029-.273.107-.247.164-.247.246-.219.191-.11.218-.109.244-.054.274-.056.299-.054h.6l.244.028.274.026.273.029.272.054.271.055.274.055.272.081.273.082.299.083.219.109.245.083.218.109.246.11.218.108.244.11.22.137.243.11.22.164.217.137.245.137.219.164.163-.218.137-.22.162-.219.165-.218.162-.247.137-.219.164-.22.163-.218.136-.219.164-.219.163-.22.138-.219.162-.246.164-.219.164-.219.136-.218.163-.22-.218-.164-.217-.165-.218-.164-.219-.136-.245-.165-.218-.137-.245-.137-.246-.137-.218-.109-.244-.136-.275-.11-.244-.11-.245-.109-.245-.083-.273-.109-.246-.055-.245-.082-.273-.082-.244-.055-.273-.055-.272-.055-.247-.054-.272-.055-.299-.027-.272-.055-.302-.027h-.271l-.3-.028-.299-.027h-1.173l-.272.027-.273.028-.274.027-.271.028-.246.054-.271.055-.247.054-.244.055-.218.055-.246.082-.273.11-.272.082-.247.109-.244.137-.245.11-.246.136-.217.137-.218.165-.219.164-.19.137-.219.192-.19.219-.192.191-.19.219-.164.22-.163.219-.137.246-.135.246-.11.246-.109.247-.108.246-.055.246-.082.247-.055.247-.055.246-.027.274-.027.246-.027.274v.63l.027.301.027.273.027.274.055.247.055.274.082.218.08.247.083.219.109.19.137.246.136.219.137.192.162.192.165.192.19.191.191.192.19.164.22.137.217.164.245.137.218.137.273.137.244.137.274.109.272.11.273.11.299.109.247.081.245.083.244.082.273.055.245.082.273.082.272.055.274.082.272.055.3.082.272.055.299.082.274.054.273.082.244.055.246.082.217.055.191.055.326.137.275.11.244.109.218.109.219.165.19.164.137.192.11.274.026.328v.055l-.026.274-.083.245-.109.22-.163.192-.219.164-.19.11-.219.082-.245.055-.245.055-.274.054-.3.027h-.598l-.299-.027h-.273l-.274-.054-.299-.028-.272-.055-.273-.055-.274-.054-.244-.083-.273-.082-.271-.082-.247-.11-.244-.082-.245-.109-.247-.109-.245-.11-.217-.137-.247-.109-.217-.138-.245-.164-.218-.136-.246-.165-.218-.164-.245-.164-.217-.165-.165.219-.19.192-.164.22-.19.218-.165.192-.162.219-.192.219-.163.191-.191.219-.163.192-.192.22-.162.218-.164.192-.191.219-.164.219-.19.192-.164.218.218.192.191.165.218.164.218.164.218.164.217.165.219.137.218.137.246.137.218.136.244.137.247.109.245.136.245.109.245.11.273.109.245.083.272.081.246.11.272.082.273.082.244.055.274.082.273.055.272.055.272.055.274.054.272.028.271.055.3.027.274.027.272.028h.3l.272.027h1.145l.273-.027.298-.028.275-.027.244-.027.272-.028.275-.055.244-.054.245-.055.272-.055.247-.082.271-.083.272-.082.273-.109.274-.11.244-.136.245-.11.247-.137.217-.164.218-.135.219-.165.19-.163.218-.192.163-.165.192-.191.162-.192.137-.219.164-.219.136-.219.137-.219.108-.246.109-.219.11-.247.082-.274.053-.246.082-.274.055-.274zm-19.361 5.2h.546v-4.515h-10.685v-3.395h9.485v-4.242h-9.485v-3.259h10.548v-4.517H253.21V169.8zm-19.913 0h.544v-19.928h-5.586l-.137.219-.136.247-.164.217-.137.247-.135.218-.137.247-.163.217-.137.247-.136.219-.136.218-.164.245-.136.22-.137.246-.136.219-.162.245-.138.219-.134.219-.138.245-.137.219-.162.246-.137.219-.137.245-.135.219-.165.247-.135.217-.137.218-.137.247-.163.219-.137.247-.135.217-.137.247-.162.218-.136.245-.138.219-.135-.219-.137-.245-.164-.218-.135-.247-.137-.217-.136-.247-.137-.219-.164-.247-.135-.218-.137-.217-.135-.247-.137-.219-.165-.245-.135-.219-.137-.246-.135-.219-.137-.245-.165-.219-.135-.219-.136-.245-.137-.219-.162-.246-.138-.22-.135-.245-.137-.218-.137-.219-.162-.247-.137-.217-.136-.247-.137-.218-.137-.247-.162-.217-.137-.247-.135-.219h-5.589V169.8h5.179v-11.728l.163.218.137.248.163.219.137.246.164.22.135.246.165.221.135.246.164.22.137.245.163.22.137.248.162.218.138.247.162.219.137.248.164.219.162.247.137.218.163.249.137.218.164.247.135.219.165.248.135.219.164.247.138.219.162.246.137.221.163.245.137.22.162.246.137.221.164.246h.108l.138-.218.162-.249.136-.219.165-.219.135-.246.164-.219.135-.221.137-.246.165-.219.135-.22.164-.22.136-.246.164-.219.137-.219.135-.249.165-.218.135-.219.163-.247.136-.219.164-.22.137-.247.136-.219.164-.219.136-.248.163-.219.137-.219.163-.219.137-.248.135-.219.164-.219.137-.246.163-.219.137-.219.163-.249.136-.218V169.8zm-31.435-8.459.082.247.11.247h-4.606l.108-.247.082-.247.11-.274.109-.247.081-.248.108-.246.11-.274.109-.248.081-.247.11-.245.109-.249.08-.273.11-.247.11-.247.082-.247.108-.247.109-.275.11-.246.08-.247.11-.248.11-.274.082-.247.108-.247.109.247.082.247.108.274.11.248.082.247.109.246.108.275.082.247.109.247.11.247.08.247.11.273.083.249.107.245.109.247.084.248.108.274.108.246.082.248.11.247zm8.369 8.459h.545l-.11-.246-.109-.247-.108-.246-.082-.274-.11-.245-.11-.245-.107-.247-.11-.247-.109-.246-.107-.273-.11-.247-.083-.247-.108-.246-.109-.246-.109-.247-.11-.273-.108-.247-.109-.246-.11-.247-.08-.246-.11-.246-.109-.275-.11-.246-.108-.246-.11-.247-.109-.246-.108-.247-.082-.273-.11-.247-.107-.246-.11-.246-.11-.247-.108-.246-.109-.274-.109-.246-.082-.247-.108-.247-.109-.245-.11-.247-.11-.274-.108-.246-.11-.247-.109-.246-.081-.246-.109-.247-.109-.244-.108-.274-.11-.246-.109-.248-.11-.246-.108-.246-.082-.247-.109-.273-.108-.247-.11-.246-.11-.246-.109-.247-.108-.246-.11-.275-.082-.245-.107-.247-.11-.247-.109-.245-.108-.247-.109-.274-.11-.246-.109-.246-.081-.247-.109-.246-.11-.247-.108-.274-.109-.246-.11-.246-.11-.247-.107-.246-.083-.246-.109-.274-.108-.247-.11-.246-.109-.246h-5.042l-.108.246-.11.246-.109.247-.083.274-.107.246-.11.246-.11.247-.107.246-.11.246-.11.274-.109.247-.081.246-.109.247-.11.246-.108.246-.109.274-.11.247-.108.245-.109.247-.082.247-.109.245-.109.275-.109.246-.109.247-.109.246-.109.246-.109.247-.082.273-.108.247-.11.246-.109.246-.108.248-.11.246-.109.274-.108.244-.082.247-.11.246-.11.246-.107.247-.11.246-.11.274-.107.247-.11.245-.082.247-.109.247-.109.246-.109.274-.109.246-.109.247-.108.246-.11.246-.082.247-.108.273-.11.247-.109.246-.108.247-.11.246-.109.246-.108.275-.082.246-.11.246-.109.247-.108.246-.11.247-.109.273-.108.247-.11.246-.082.246-.11.247-.107.247-.11.273-.11.246-.107.247-.109.247-.11.245-.082.245-.109.274-.108.246-.11.247-.108.246h5.505l.109-.246.082-.247.109-.246.109-.274.082-.245.11-.245.107-.247.083-.247.109-.246.109-.246.081-.247.109-.274.11-.246.082-.246.108-.247h7.822l.11.247.081.246.11.246.108.274.082.247.109.246.11.246.08.247.11.247.11.245.08.245.109.274.11.246.082.247.108.246zm-23.825-2.38.22-.165.19-.163v-8.897h-8.995v3.996h3.98v2.492l-.218.137-.191.108-.245.11-.219.11-.245.109-.245.055-.272.082-.274.055-.272.055-.273.027-.299.028-.302.027h-.625l-.3-.027-.272-.028-.272-.055-.274-.054-.273-.083-.272-.082-.246-.109-.244-.11-.246-.11-.218-.136-.218-.137-.217-.164-.219-.165-.19-.164-.165-.191-.19-.192-.164-.192-.163-.219-.137-.219-.137-.219-.135-.246-.109-.247-.109-.274-.082-.218-.082-.247-.055-.246-.054-.246-.055-.247-.028-.274-.026-.247-.026-.273v-.63l.026-.274.026-.274.056-.301.054-.246.055-.272.082-.274.109-.246.081-.246.11-.247.137-.219.135-.246.137-.219.135-.192.164-.22.19-.191.165-.191.19-.165.192-.164.19-.164.219-.137.217-.138.219-.136.244-.109.245-.11.245-.082.247-.083.244-.054.273-.055.246-.028.272-.026h.572l.301.026.299.028.273.027.272.055.272.055.247.055.244.082.245.082.219.082.218.11.218.11.245.137.218.136.219.137.217.137.217.164.22.137.217.191.219.165.163-.219.192-.191.162-.22.192-.219.163-.218.163-.192.191-.219.164-.22.19-.218.164-.193.163-.218.191-.219.163-.192.164-.22.19-.218.165-.219.19-.191.164-.219-.217-.165-.219-.192-.218-.164-.219-.164-.217-.138-.218-.163-.246-.137-.218-.137-.244-.137-.219-.137-.245-.11-.245-.136-.246-.11-.245-.109-.245-.11-.246-.082-.218-.082-.245-.055-.245-.082-.246-.055-.245-.055-.246-.054-.272-.055-.272-.054-.247-.028-.299-.055-.272-.027h-.273l-.299-.027-.302-.028h-1.17l-.274.028-.272.027-.272.027-.272.028-.274.055-.273.027-.272.055-.245.081-.273.055-.245.082-.244.055-.247.11-.272.082-.218.082-.272.137-.246.11-.245.109-.245.136-.246.137-.244.137-.218.138-.219.137-.217.164-.22.136-.217.165-.19.164-.219.192-.19.163-.192.193-.19.191-.165.192-.19.191-.164.193-.163.218-.164.219-.162.219-.138.219-.136.219-.135.219-.137.22-.137.246-.108.246-.109.247-.11.246-.108.246-.109.274-.083.247-.082.273-.08.247-.055.274-.082.273-.055.247-.027.274-.054.272-.029.301-.025.273v.274l-.028.301v.904l.028.274.025.274.029.274.026.246.055.274.027.246.055.273.083.247.054.274.081.246.054.247.11.246.082.219.108.246.11.247.109.247.108.246.137.219.137.246.135.219.136.219.164.219.136.219.164.192.163.219.164.191.19.192.192.192.19.165.192.19.19.165.192.164.217.165.218.163.219.166.217.136.22.137.244.137.217.135.247.137.244.11.245.109.247.109.272.11.245.082.244.109.247.083.272.055.245.082.273.055.245.054.272.055.272.055.274.027.273.028.272.027.299.028.273.026h1.173l.298-.026.274-.028.3-.027.272-.028.3-.027.272-.027.274-.055.272-.055.245-.055.274-.055.244-.082.272-.082.245-.082.246-.083.245-.082.245-.109.274-.109.245-.11.272-.109.245-.137.246-.108.244-.137.245-.137.247-.136.217-.137.219-.137.218-.165.217-.137.219-.164zm-8.547-62.638h11.814v-9.137h-11.814V76.99h12.283v-9.137h-22.314v65.946h22.502v-9.137h-12.471zm84.613 16.865v-14.885h9.844v15.355c0 8.198-4.03 12.248-12.187 12.248h-4.97c-8.155 0-12.188-4.05-12.188-12.248V79.534c0-8.196 4.033-12.247 12.188-12.247h4.877c8.155 0 12.092 3.957 12.092 12.153v13.472h-9.843V80.005c0-2.638-1.219-3.862-3.75-3.862h-1.688c-2.626 0-3.845 1.224-3.845 3.862v41.642c0 2.638 1.219 3.862 3.845 3.862h1.876c2.53 0 3.749-1.224 3.749-3.862m-34.835 12.152h10.032V67.853h-10.032zm-18.307-32.783c2.532 0 3.749-1.226 3.749-3.864V80.57c0-2.636-1.217-3.861-3.749-3.861h-4.126v24.307zm-14.158-33.164h15.75c8.158 0 12.188 4.05 12.188 12.248v17.524c0 8.196-4.03 12.245-12.188 12.245h-5.718v23.93h-10.032z" clip-rule="evenodd"/></svg>