<svg xmlns="http://www.w3.org/2000/svg" width="470" height="262" fill="none"><path fill="#2C2C2C" d="m273.385 119.83-6.161 10.379h5.09l1.071-10.379Zm-104.399-8.773h-4.955l-9.107 21.295c1.406-.201 5.625-.87 6.629-1.138 1.272-.402 2.277-1.607 3.75-4.755 1.473-3.08 3.616-8.705 4.822-11.585 1.138-2.879.067-3.884-1.139-3.817Zm193.128-3.013c2.679 0 3.884 2.277 1.273 4.888-2.545 2.612-28.662 31.139-29.599 32.144-.871 1.004-1.272 2.009.268 2.009h15.804l-1.407 3.616h-24.509c-2.879 0-3.951-2.009-1.205-4.956l30.268-32.612c1.004-1.138.737-1.607-.268-1.607h-14.33l1.205-3.348 22.5-.134Zm-52.634 0-15.336 36.228c-1.071 2.344.335 2.746 1.608 2.746h9.308l-1.406 3.616h-16.943c-3.147 0-4.285-2.143-2.544-6.094l15.736-36.496h9.577Zm-26.251 0-3.549 42.59h-9.442l1.808-17.277h-7.701l-11.451 17.277h-9.107l26.987-39.844c.937-1.34 2.879-2.746 4.218-2.746h8.237Zm-25.112 0-18.081 42.59h-9.91l18.482-42.59h9.509Zm77.144 0-18.08 42.59h-9.911l18.482-42.59h9.509Zm-91.809.067-1.407 3.013h-12.589c-3.147 0-3.482 1.34-4.219 2.88-.736 1.473-12.388 28.996-13.125 30.469-.737 1.473-.67 2.612 1.406 2.612h12.791l-1.139 3.616h-20.357c-3.616 0-4.353-2.344-3.014-5.491l14.532-33.952c1.004-2.477 3.683-3.147 6.562-3.147h20.559Zm-29.867 0-1.473 2.879h-11.384c-3.148 0-4.219.871-5.357 3.215-1.072 2.344-5.692 13.326-5.692 13.326h12.254l-1.607 3.08h-11.853l-5.692 13.059c-1.138 2.611-.87 3.348 1.072 3.348h12.79l-1.54 3.616h-19.956c-2.812 0-4.621-1.339-2.879-5.625l13.928-32.612c1.474-3.349 3.817-4.42 7.233-4.42l20.156.134Zm182.816-.134-1.474 2.88h-11.384c-3.147 0-4.219.87-5.357 3.214-1.071 2.344-5.692 13.326-5.692 13.326h12.255l-1.608 3.08h-11.852l-5.693 13.059c-1.138 2.611-.87 3.348 1.072 3.348h12.857l-1.54 3.616h-19.956c-2.745 0-4.62-1.339-2.879-5.625l13.929-32.612c1.473-3.348 3.817-4.42 7.232-4.42l20.09.134Zm-219.58.134c3.482 0 5.09 2.679 3.616 6.496-1.406 3.884-3.08 7.366-5.491 12.79-2.411 5.491-4.085 6.094-8.638 6.696l-13.126 1.809-6.495 14.732h-9.308l18.817-42.59 20.625.067Zm-25.514 0-1.473 2.946-13.728-.067c-1.808 0-2.812 1.139-3.817 2.746-1.004 1.607-1.272 2.88-2.21 4.889-.937 2.008-.87 4.084.871 5.491 1.741 1.339 3.75 3.281 5.558 4.821 3.281 2.88 4.219 4.219 1.54 10.313-2.076 4.754-1.004 2.611-2.812 6.629-1.808 4.018-3.884 4.889-7.032 4.889h-21.629l1.875-3.616h13.393c2.41 0 3.08-1.273 4.152-3.349 1.071-2.142 1.406-2.745 2.678-5.826 1.339-3.08 1.674-4.62-.134-6.361-1.808-1.741-4.152-3.75-6.83-6.094-2.679-2.344-2.545-3.014-1.206-6.362 1.34-3.348 1.875-4.486 3.215-7.567 1.339-3.08 3.817-3.415 6.361-3.415l21.228-.067Zm246.567 38.84h2.411c2.41 0 3.08-1.273 3.95-3.014.871-1.741 11.318-25.915 12.523-28.862 1.205-3.013.335-3.75-1.473-3.75h-6.228l-15.268 35.626h4.085Zm-15.201 3.549 18.281-42.657h23.237c3.415 0 4.018 3.482 3.081 5.96-1.005 2.478-12.188 28.259-13.46 31.34-1.34 3.08-3.215 5.357-6.496 5.357h-24.643Zm35.156 3.951c.871 0 1.675-.335 2.277-.938a3.186 3.186 0 0 0 .938-2.276c0-.871-.335-1.675-.938-2.277a3.187 3.187 0 0 0-2.277-.938c-1.741 0-3.214 1.474-3.214 3.215 0 .87.335 1.674.938 2.276a3.186 3.186 0 0 0 2.276.938Zm-2.879-3.214c0-.737.268-1.474.804-2.009.535-.536 1.272-.804 2.008-.804.737 0 1.474.268 2.009.804.536.535.804 1.272.804 2.009 0 1.54-1.272 2.879-2.88 2.879-.736 0-1.473-.268-2.008-.87a3.181 3.181 0 0 1-.737-2.009Zm1.54-1.675h1.674c.871 0 1.072.67 1.072.938 0 .402-.201.67-.536.804.268.134.402.2.402.87 0 .469 0 .603.134.67v.067h-.804c-.067-.134-.067-.335-.067-.67 0-.469 0-.603-.536-.603h-.736v1.34h-.67l.067-3.416Zm1.473 1.474c.335 0 .536-.134.536-.469 0-.201-.067-.469-.469-.469h-.87v.871l.803.067ZM59.139 162.085c.067-.134-.067-.335-.134-.402-.201-.402-.804-.535-.737-1.004.067-.536.67-1.406 0-1.473-.335 0-.87.067-.937-.268-.067-.268 0-.67.2-.871.134-.134.47-.201.47-.335.066-.268.334-.334.468-.602.2-.469.134-.871 0-1.34-.067-.268 0-.535.268-.669s.536-.603.602-.871c.135-.87 0-1.674.536-2.478.134-.2-.268-.267-.535-.401-.201-.067-.067-.268.133-.469-.2.201.134.201.201.335.134-.134.335-.268.335-.469 0-.268.134-.536.201-.737.268-1.473.737-3.415 1.607-4.018h.067c0 .201.201.402.201.603-.2 0-.268-.067-.469.067.134.134 0 .402.134.402.201 0 .469.067.67 0 .2 0 .335.201.536.268.401.134.334-.402.468-.67-.267-.134-.133-.335-.133-.536v-.401c.067-.469-.536-.938-.402-1.407.067-.268.2-.535.2-.736-.066-.737.269-1.407.068-2.076.267 0 .602-.134.803-.201.402-.201.268-.804.603-1.072-.134-.134.067-.334-.201-.535-.201-.134.268-.201.067-.402.067 0 .268 0 .2-.067 0-.268-.133-.536-.2-.737 0-.134-.134-.468.134-.468.2 0 .268-.201.402-.268.067-.067.2-.067.2.067 0 .401.268.736.268 1.138 0 .134.067.402.268.469.201.067.402-.067.402-.268 0-.268-.067-.536-.067-.737 0-.134.201-.134.335-.134.402-.134.603.67 1.004.402.335-.201.067-1.071.067-1.205 0-.134-.134-.201-.267-.268-.268-.067-.402-.335-.737-.335-.067 0-.134-.268-.134-.268.067-.736-.335-1.071-.87-1.406.066-.067.066-.134.2-.134.335-.067.603.268.938.201.335-.067.736-.134.803-.469.067-.268 0-.602-.2-.803-.268-.268-.335-.536-.47-.871-.133-.335.269-.67.202-1.071.401-.067.468.334.67.535.066.067.066.201-.068.268.402.201.268.871.737.938.335.067.803.134 1.071.335.268.133.268.669.603.87.201.134.402.268.67.201s0-.268 0-.402c0-.402-.402-.803-.402-1.272 0-.938-.268-1.808-.536-2.746-.067-.201-.268-.268-.402-.402-.067-.133-.133-.267-.2-.334-.201-.402.133-1.005.267-1.474.335.335.268 1.072.737 1.072.536 0 1.138-.603 1.272-1.005.134-.468.402-1.205-.134-1.607-.067-.067-.267-.067-.267-.201s.133-.268.2-.401c.134-.536-.067-1.005-.2-1.541.267 0 .401-.134.602-.201.134-.067.402-.067.536-.267.335.2.335.669.268 1.071 0 .134.2.067.2.067.202-.402.335-.871.47-1.272.066-.268-.135-.871-.402-1.273.134-.067.134-.268.134-.335-.335-.669.736-2.946 1.339-1.942-.134-.2-.134-.468-.134-.669 0-.335-.067-.804.134-1.139.134-.267.67.067.736-.334.067-.469.335-.871.268-1.34.402 0 .47-.402.737-.602-.134-.134-.402-.268-.335-.402.067-.201-.134-.402-.2-.469-.47.268-.804.737-1.34.871-.268.067-.603.2-.67.334-.134.335-.401.536-.67.67-1.473.737-2.745 2.076-4.084 2.947-.603.401-1.406.803-2.076 1.138-.067.067-.134.268 0 .402-.067 0-.201-.067-.201.067a.742.742 0 0 1-.536.736c-.335.134-.67.268-.736.536-.134.335-.402.536-.67.67-.268.201-.603.201-.938.268-.468.067-.401.736-.803 1.071-1.206.938-2.478 1.473-3.55 2.478-.2.201-.2.602-.468.669-.335.134-.536.402-.87.536-.67.335-1.809 1.607-2.478 2.009-.335.134-.737.603-1.005.804-.335.268-.87.334-1.272.535a.572.572 0 0 1-.469 0c-.2-.067-.268-.134-.469-.201-.2-.066-.334-.2-.468-.334a10.312 10.312 0 0 1-.871-.804c-.67-.67-1.205-1.406-1.942-2.009a16.719 16.719 0 0 1-1.54-1.54c-.67-.804-1.406-1.54-1.942-2.411-.134-.268-.402-.402-.536-.67-.2-.401-.603-.669-.803-1.071-.268-.603-.871-1.004-.871-1.674 0-.871.268-1.674.536-2.478.067-.134.268-.268.334-.402.402-.803 1.005-2.076 1.407-2.879.134-.268.402-.469.67-.469.401.067.535-.335.67-.603.066-.2-.068-.468-.135-.736-.067-.201.067-.402 0-.67.402-.067.804-.603 1.072-.268.2.268.468.469.803.469.268 0 .201-.201.402-.335.067-.067.2 0 .335 0 .268-.067.268-.535 0-.602-.469-.134-.737-.603-.737-1.005 0-.603.268-1.607.87-1.942.135-.067.47-.201.537-.134.334.268-.068 1.005.535 1.072.335.067.87 0 .804-.335-.067-.335-.603-.536-.603-.938 0-.602.87-.535 1.072-.937.468-.871.535-2.009.2-3.014-.066-.268.402-.201.603-.268.402-.133.268.67.737.804.067-.134.268 0 .335-.134l.067-.803c.066-.335.066-.737.2-1.072.067-.134.201-.536.402-.536s.536-.268.603-.535c0-.268-.335-.469-.268-.804.067-.603.938-.335 1.205-.871l.134.134c.402-.2.603-.602 1.072-.736.2-.067.335.134.469.134.066 0 .334 0 .267-.134v-.737c.067-.535-.2-.87-.535-1.138.067-.067.334-.402.535-.402.134-.2.402-1.34 1.139-.603.134.134.335-.067.536-.134.267-.067.133-.401.133-.602 0-.201 0-.47.068-.67.066-.268.334-.402.602-.469l-.067-.067h.335c.469-.2.335-.67.402-1.071l.067.067.067-.067.067.067c.067-.335.401-.603.468-1.005.268.067.134-.267.335-.334.067 0 .201 0 .201-.068l-.067-.066c.335 0 .469-.268.603-.536.067-.134.067-.402.067-.603 0-.536.268-1.138.536-1.54.133-.268.67-.67 1.004-.134.268-.268 0-.803.402-.87.134 0 .268.267.469.334.401.134-.201.737.267.804.47.067.402-.268.536-.603.067-.2.469-.067.67-.134.268-.067 0-.468-.134-.602l-.067.067c0-.067.067-.201-.067-.201-.67-.067-.2-.737-.134-1.072 0-.067-.134-.067-.134-.134s.268-.067.067-.268c.268-.067.603 0 .67-.267 0-.067 0-.268.067-.402.067 0 .134-.067.134-.067.334.134.803.67.87.2.067-.334.134-.937.402-1.07.067-.068.335-.068.335-.135.067-.335-.268-.602-.335-.87 0-.067.067-.268.134-.201.268.067.67.134.803 0 .134-.402-.602-.469-.937-.536l.067-.067c0-.067-.067-.134-.134-.067.067-.134.067-.402.268-.469h.134a.572.572 0 0 0 .067-.87c-.067-.134.335-.067.067-.268.134 0 .335.067.468 0 .335-.134.67-.335.871-.603.134-.267.201-.602.469-.67.268-.066.603-.066.803-.334-.133-.067-.067-.201-.067-.335.134 0 .268-.067.335.067.335-.268.268-.804.603-1.005.2-.133.603 0 .67-.267.133-.603.401-1.005.803-1.34.201-.2.67-.2.804-.468.134-.201 0-.536.067-.737.2-.402.67-.603.87-1.004.067-.134-.067-.402.134-.536.268-.134.536 0 .737.2.268-.401.067-.803.268-1.205.2-.401.401-.937.736-1.138.335-.134.603-.268.737-.536s.335-.535.268-.87c.067 0 .2 0 .268-.067.2.134.2.468.267.401.536-.468-.066-1.406.268-2.008.134-.268.603 0 .804-.134.067-.067.268-.067.2-.268 0-.201.068.067.202.067-.067.267 0 .468.268.535.2.067.468-.067.535.067.134.201-.067.536-.067.67.067.335.335.603.47.938.066.2-.202.334-.202.535.134.67.402 1.34.268 2.01-.067.334-.402.535-.469.87-.067.402.402.535.402 1.004 0 .335.067.737-.335.87-.134.068-.268 0-.401.135-.134.134.267.268.133.469.335.133.603.334.67.602.268.67-.134 1.808.87 1.942.068.67.536 1.272.47 1.875-.135.938-1.072 2.41-1.809 3.08-.334-.133-1.004.804-1.205 1.005l.134.134c-.201.134-.134.402-.268.536-.134.2-.469.134-.536.401-.067.536-.535.871-.87 1.273.134.134 0 .268-.067.335-.335.67-1.072.736-1.273 1.54-.067.2-.602.134-.602.402-.067.535-.536.736-.67 1.205-.067.268-.402.067-.536.268-.067.067 0 .2 0 .268.067.335-.267.468-.535.535l.067.067c-.335-.066-.335.335-.536.402.134.268-.134.603-.335.603-.134 0-.402-.067-.469-.268 0 .134-.2 0-.2.134 0 .335.334.67.2.938a2.972 2.972 0 0 1-.535.736c-.268.268-.804.268-.938.469-.134.268-.067.803-.2 1.138-.135.47-.871.134-.871.47 0 .2.2.669-.067.803-.335.134-.737.267-.804.602-.134.335-.603.536-.469.871 0 .201-.134.335-.2.469-.201.602-.804.937-1.273 1.406-.067.067.067.335 0 .536-.2.334-.737.134-.803.468-.068.201-.134.536 0 .804.2.469.87.469 1.205.938.268-.201.134-.737.067-1.005-.067-.268.402-.402.737-.469.066 0 .133-.134.133-.134.335.201.536.603.938.67.402.067.469-.335.603-.603.133-.134-.201-.268-.201-.468 0-.201 0-.335.134-.402.2-.067.401-.067.67 0 .267.067.267.535.401.469.536-.134-.134-.804.067-1.206.067-.134.335-.201.402-.067.134.201.134.469.335.536.134 0 .334 0 .334-.067.268-.603.804-.603 1.34-.67.535-.134-.402-1.071.067-1.071h.87c.067 0 .134.067.134.067 0-.067.134-.134.201-.134-.067-.134.201-.402-.067-.536.134-.2.402-.2.67-.2.335 0 .402-.67.803-.737.201 0 .402.267.536.2.268-.2.603 0 .804-.133.134-.134.335-.335.401-.536.068-.268-.2-.737.134-.804.268-.067.536.402.804.402.2 0 0-.335 0-.536.067-.401.268-.67.469-.87.134-.134.335 0 .468.134.068.067.201.067.268 0 .268-.134.335-.469.402-.737 0-.2-.134-.469.134-.536.268-.133.603 0 .737.201.134.134-.268.335-.268.536 0 .2.335.469.536.536.133.067.2-.201.2-.335 0-.201-.2-.402-.2-.536 0-.402.2-.87.602-.937.268 0 .47.468.804.401.335-.067.335-.602.603-.67.267-.066.334-.267.401-.401.067-.2.134-.469.268-.536.201-.067.469-.134.603 0 .2.134.268.47.536.603.134.067.267.067.401.067.268 0 .536 0 .603-.335.067-.2.134-.335.268-.402s.2-.067.335-.2c.268.267 1.004.066 1.138-.135.067-.133.536-.267.536-.401 0-.335.536-.536.87-.67.201-.067.871.067 1.139.134 0 0-.134.134-.067.134 0 .134.2.134.268.134-.067.402.268.602.469.87.468.737 1.004 1.54 1.406 2.277.535.87 1.004 1.875 1.54 2.679.335.603.87 1.272 1.138 1.942 0-.067 0 .067 0 0 .335.937.804 1.942.536 2.946-.134.737-.937 1.206-1.406 1.875-.201.335-.335.67-.469.938-.134.268-.335.402-.536.603-.334.267-.736.669-.736 1.138 0 .268-.201.469-.268.603-.87 1.272-2.478 4.218-3.415 5.424-.268.402-1.54 2.678-1.741 3.08-.201.402-.335.804-.737 1.072.2.201-.134.401-.134.535-.067.268-.2.603-.536.737.201.201-.134.335-.134.536-.067.469-.468.803-.736 1.272-.201.402-.536.737-.67 1.138-.2.402-.402.871-.603 1.273l-.067.134c-.736 1.339-1.54 2.678-2.075 4.219-.067.2-.402.401-.47.602-.066.268-.401.402-.334.737 0 .335-.402.469-.469.737-.067.267-.134.602-.335.87-.067.067-.067.134-.134.201l-.937 1.808c0 .134.067.335.067.402 0 .134-.268.402-.335.602-.067.268-.335.603-.469.737-.134.201-.736 1.205-.87 1.674-.134.469-1.474 3.014-1.674 3.282-.134.2-1.674 3.348-1.742 3.549-.066.201 0 .401-.066.803l-1.407 4.152c-.067.201-.2.268-.268.402-.066.134-.535 1.875-.67 2.076-.133.201-.2.201-.267.536 0 .267-.268 1.741-.402 1.808-.134.067-.402.268-.402.401 0 .134-.134.469-.267.67-.067.201-.603.536-.335 1.406.2.871-.402.804-.47 1.206-.066.402-.468.402-.2 1.071.268.67-.067.737-.067.938 0 .201-.402 2.745-.469 3.08-.134.402 0 1.005 0 1.406-.067.603-.2 1.273-.535 1.808.2.067-.067.268.066.402-.267.268-.267.603-.334.938-.067.268-.134.669-.067 1.071 0 .201.134.603-.134.804.2.134.067.402.067.469 0 .736 0 1.406-.134 2.209-.201 1.005-.067 2.009-.067 3.014 0 .134-.067.402.067.469-.201.334 0 .736 0 1.071 0 .67.067 1.406.2 2.076.068.603.335 1.272.47 1.875.066.335-.135.737-.135 1.071.135 1.273.804 2.411.938 3.684.067.602.737.803.804 1.272.067.268-.067.469-.201.737-.067.133.134.334.2.468.135.268.67.134.804.469.067.201-.2.335-.268.469-.067.268.47.469.402.803 0 .134.067.268.067.335.134.335.737.201.804.603.134.402.401.67.535 1.071.134.335.335 1.942-.133 1.808-.938-.201-1.742-1.004-1.675-1.875.067-.535-.535-.937-.803-1.339-.603-.871-1.206-1.138-1.474-2.143-.066-.134-.267 0-.334-.134-.067.067-.335.067-.268.134.067.201-.134.201-.134.201-.737.268-1.272-.737-1.607-1.339-.201-.335-.335-.67-.67-.804-.603-.335-.67-1.004-1.205-1.406-.335-.268-.335-.938-.268-1.54.067-.469-.67-.402-.67-.737 0-.201-.2-.201-.2-.335-.135.201-.335-.134-.47 0-.066-.134 0-.268-.066-.402-.067-.133-.268-.267-.402-.401-.804-1.072-1.139-2.21-1.741-3.349-.067-.201.2-.535-.067-.736-.067.134-.201.134-.201.067-.201-.268-.67-.134-.67-.402s-.2-.67-.335-.67c-.267-.067-.535-.201-.803-.268-.201-.067-.201-.669-.536-.669-.268 0-.469-.134-.469-.402H58c.134-.134.335-.335.134-.536-.134-.201-.402-.201-.602-.268-.268-.067-.067-.334-.067-.535 0-.335-.335-.469-.335-.737 0-.201-.268-.402-.067-.536.2-.201.067-.468.134-.669.067-.469-.536-.737-.402-1.206 0-.067.2-.201.469-.134.133.067.133-.267.133-.267 0-.67-.267-1.273-.401-1.942-.067-.335.134-.737.134-1.072 0-.937.134-1.942-.335-2.812-.067-.134-.201-.268-.268-.402-.067-.335.335-.335.536-.469h.602c.067.067.067.201.201.268.067.067.201.067.268.067.067-.201.87-.268 1.005-.536Z"/></svg>