<svg xmlns="http://www.w3.org/2000/svg" width="470" height="262" fill="none"><g fill="#2C2C2C" clip-path="url(#a)"><path d="M259.774 131.072c-.62.456-1.36.986-2.255 1.618-5.73 4.058-14.046 6.839-24.856 6.839h-.719c-10.802 0-19.127-2.781-24.857-6.839a238.476 238.476 0 0 1-2.25-1.618 104.71 104.71 0 0 1 2.25-1.626c5.73-4.054 14.051-6.839 24.857-6.839h.719c10.814 0 19.135 2.785 24.856 6.839a90.92 90.92 0 0 1 2.255 1.626Zm55.861-33.46s-4.92-3.759-20.482-9.476C281.488 83.126 271.188 82 271.188 82l.041 29.465c0 4.148-1.13 7.935-4.296 12.251-11.607-4.23-22.59-6.834-34.583-6.834-11.992 0-22.967 2.6-34.578 6.834-3.17-4.296-4.296-8.107-4.296-12.251L193.521 82s-10.374 1.109-24.047 6.136C153.92 93.87 149 97.611 149 97.611c.645 13.373 12.354 25.259 30.795 33.461-18.457 8.19-30.167 20.051-30.795 33.457 0 0 4.92 3.754 20.474 9.475 13.665 5.011 23.978 6.136 23.978 6.136l-.05-29.469c0-4.148 1.138-7.935 4.296-12.247 11.611 4.23 22.581 6.826 34.578 6.826 11.993 0 22.972-2.6 34.583-6.826 3.17 4.3 4.296 8.103 4.296 12.247l-.041 29.469s10.304-1.117 23.969-6.136c15.562-5.729 20.482-9.475 20.482-9.475-.645-13.377-12.354-25.267-30.795-33.457 18.453-8.206 30.159-20.055 30.795-33.465m5.557 63.357c0 .698-.419 1.335-1.068 1.602a1.719 1.719 0 0 1-1.889-.37 1.725 1.725 0 0 1-.378-1.889c.267-.645.9-1.068 1.602-1.068.456 0 .899.177 1.224.501.328.325.509.764.509 1.224Zm.366 0c0-.85-.51-1.618-1.294-1.943a2.09 2.09 0 0 0-2.288.452 2.104 2.104 0 0 0-.46 2.284 2.11 2.11 0 0 0 1.943 1.298 2.096 2.096 0 0 0 2.095-2.095"/><path d="M319.812 161.978h.378l-.608-.862a.531.531 0 0 0 .361-.185.533.533 0 0 0 .12-.39c0-.329-.181-.55-.645-.55h-.719v1.987h.337v-.85h.18l.596.85Zm-.805-1.733h.316c.271 0 .386.095.386.308 0 .218-.098.325-.386.325h-.316v-.633Z"/></g><defs><clipPath id="a"><path fill="#fff" d="M149 82h172.5v98.571H149z"/></clipPath></defs></svg>