<svg xmlns="http://www.w3.org/2000/svg" width="470" height="262" fill="none"><g fill="#2C2C2C" clip-path="url(#a)"><path d="M185.974 108.13c-14.712 0-19.22 9.285-19.22 14.421h10.15c.346-2.714 2.872-5.833 9.414-5.833 6.66 0 9.266 4.186 9.266 9.48h-4.949c-16.536 0-25.864 4.583-25.864 14.755 0 7.264 7.153 13.732 16.449 13.732 5.853 0 12.164-2.786 14.336-4.558l.149 3.386h9.834v-25.008c0-12.592-5.027-20.375-19.565-20.375Zm6.15 25.995h3.283v2.502c0 5.221-4.809 9.089-12.122 9.089-4.464 0-7.898-1.325-7.898-4.465 0-4.321 3.1-7.126 16.737-7.126ZM211.307 153.509v-44.428h15.874l8.212 32.275 8.22-32.275h15.86v44.428h-10.351v-32.001l-9.033 32.001h-9.534l-8.954-31.933v31.933h-10.294ZM296.455 136.843h10.103c-1.498 8.4-9.025 17.862-20.863 17.862-14.914 0-21.467-13.05-21.467-23.179 0-13.727 8.577-23.365 21.388-23.365 11.254 0 19.155 8.257 20.81 17.81h-9.918c-1.157-3.676-4.713-8.639-10.892-8.639-6.961 0-11.707 7.006-11.707 13.982 0 8.378 5.649 14.168 11.681 14.168 5.514 0 9.548-4.32 10.865-8.639Z"/><path d="M144 80v102.415h182.293V80H144Zm1.543 1.543H324.75v99.329H145.543V81.543Z"/></g><defs><clipPath id="a"><path fill="#fff" d="M144 80h182.293v102.415H144z"/></clipPath></defs></svg>