<svg xmlns="http://www.w3.org/2000/svg" width="470" height="262" fill="none"><path fill="#2C2C2C" fill-rule="evenodd" d="M404.813 150.892c7.009 0 10.255-3.073 10.255-8.284v-4.543c0-1.47-.389-2.138-1.428-3.074l-4.674-4.008 4.674-4.009c1.039-.935 1.428-1.603 1.428-3.073v-4.008c0-5.212-3.246-8.285-10.255-8.285h-44.39v39.284h44.39Zm2.983-6.681H367.69v-9.754h40.106v9.754Zm0-25.922H367.69v9.487h40.106v-9.487ZM327.19 150.892c7.141 0 10.387-3.073 10.387-8.284v-4.543c0-1.47-.39-2.138-1.428-3.074l-4.675-4.008 4.675-4.009c1.038-.935 1.428-1.603 1.428-3.073v-4.008c0-5.212-3.246-8.285-10.387-8.285h-44.259v39.284h44.259Zm3.119-6.681h-40.11v-9.754h40.11v9.754Zm0-25.922h-40.11v9.487h40.11v-9.487Z" clip-rule="evenodd"/><path fill="#2C2C2C" d="M250.868 111.608v32.336h-37.902v-32.336h-7.268v30.331c0 5.613 3.373 8.953 9.866 8.953h32.711c6.488 0 9.861-3.34 9.861-8.953v-30.331h-7.268ZM135.216 127.642v-16.034h-7.136v39.284h7.136V134.59h38.551v16.302h7.141v-39.284h-7.141v16.034h-38.551ZM107.052 118.556v-6.948H64.735c-6.49 0-9.735 3.341-9.735 8.952v21.379c0 5.613 3.245 8.953 9.735 8.953h42.317v-6.948H62.269v-25.388h44.783ZM432.054 115.884c-1.297 1.336-2.593 1.871-4.416 1.871-1.559 0-3.11-.535-4.152-1.871-1.297-1.069-1.814-2.673-1.814-4.276 0-1.871.517-3.208 1.814-4.544 1.042-1.069 2.593-1.87 4.152-1.87 1.823 0 3.119.801 4.416 1.87 1.034 1.336 1.814 2.673 1.814 4.544 0 1.603-.78 3.207-1.814 4.276Zm-8.052-8.018c-1.033.802-1.55 2.138-1.55 3.742 0 1.335.517 2.672 1.55 3.741 1.043 1.069 2.34 1.604 3.636 1.604 1.56 0 2.857-.535 3.899-1.604 1.034-1.069 1.297-2.406 1.297-3.741 0-1.604-.263-2.94-1.297-3.742-1.042-1.069-2.339-1.604-3.899-1.604-1.296 0-2.593.535-3.636 1.604Zm3.636.267c.78 0 1.297 0 1.823.267.779.268 1.034.802 1.034 1.603 0 .802-.255 1.069-.78 1.337-.254.267-.517.267-.78.534.526 0 .78.268 1.043.535.263.267.263.802.263 1.069v.535c0 .267.254.267.254.534v.534h-1.034v-.266l-.263-.268v-.534c0-.802 0-1.337-.517-1.604-.263 0-.78-.267-1.297-.267h-1.042v2.94h-1.034v-6.949h2.33Zm1.297 1.069c-.254-.267-.78-.267-1.551-.267h-1.042v2.406h2.339c.517-.268.517-.535.517-1.069 0-.535 0-.802-.263-1.07Z"/></svg>