<svg xmlns="http://www.w3.org/2000/svg" width="470" height="262" fill="none"><g clip-path="url(#a)"><path fill="#2C2C2C" fill-rule="evenodd" d="M243.125 66.169c-9.848 0-18.756 4.136-25.151 10.798a38.456 38.456 0 0 0-30.628-15.14c-21.276 0-38.523 17.222-38.523 38.471a38.324 38.324 0 0 0 3.167 15.299 33.498 33.498 0 0 0-16.552 28.974c0 18.475 14.821 33.45 33.105 33.448a32.895 32.895 0 0 0 6.805-.709c5.022 13.624 18.11 23.342 33.464 23.342 14.743 0 27.396-8.954 32.828-21.73a31.023 31.023 0 0 0 13.672 3.147c11.715 0 21.928-6.455 27.283-16.006 2.723.549 5.538.837 8.425.837 23.614 0 42.755-19.31 42.755-43.134 0-23.823-19.141-43.133-42.755-43.133a42.282 42.282 0 0 0-17.296 3.677c-6.083-10.84-17.508-18.141-30.599-18.141Zm-78.157 65.424-.802 2.227h-.002c-.102.269-.004.362.056.418a.145.145 0 0 1 .03.032c.279.202.561.36.844.519l.289.164c2.021 1.074 3.932 1.382 5.93 1.382 4.067 0 6.597-2.163 6.597-5.645v-.067c0-3.221-2.855-4.392-5.53-5.238l-.347-.109-.003-.001c-2.016-.657-3.754-1.223-3.754-2.548v-.071c0-1.137 1.016-1.974 2.595-1.974a11.74 11.74 0 0 1 5.167 1.325s.397.252.542-.128l.824-2.227c.078-.213-.056-.374-.195-.46-1.531-.929-3.644-1.564-5.831-1.564l-.408.004c-3.722 0-6.323 2.249-6.323 5.473v.069c0 3.397 2.87 4.501 5.553 5.265l.434.139c1.955.598 3.647 1.119 3.647 2.494v.065c0 1.265-1.098 2.202-2.868 2.202a9.624 9.624 0 0 1-5.239-1.51 8.907 8.907 0 0 1-.387-.242 8.872 8.872 0 0 0-.285-.179c-.117-.071-.406-.197-.534.185Zm59.561 0-.805 2.227c-.104.269-.005.362.055.418.012.012.023.022.03.032.279.201.56.359.843.517.097.055.194.109.291.166 2.02 1.074 3.931 1.382 5.931 1.382 4.067 0 6.594-2.163 6.594-5.645v-.067c0-3.221-2.852-4.392-5.527-5.238l-.347-.109c-2.019-.657-3.757-1.223-3.757-2.549v-.071c0-1.137 1.015-1.974 2.594-1.974a11.74 11.74 0 0 1 5.17 1.325s.392.252.542-.128c.071-.208.748-2.03.824-2.227.076-.213-.061-.374-.195-.46-1.534-.929-3.649-1.564-5.835-1.564l-.406.004c-3.722 0-6.325 2.249-6.325 5.473v.069c0 3.397 2.87 4.501 5.557 5.265l.434.139c1.955.598 3.644 1.119 3.644 2.494v.065c0 1.265-1.099 2.202-2.863 2.202-.69 0-2.876-.015-5.245-1.51a12.341 12.341 0 0 1-.435-.27l-.237-.151c-.074-.045-.415-.18-.532.185Zm43.75-4.599c0-1.299-.165-2.529-.499-3.648-.33-1.128-.85-2.122-1.54-2.95a7.476 7.476 0 0 0-2.612-1.983c-1.039-.486-2.26-.731-3.64-.731-1.379 0-2.6.245-3.639.731a7.454 7.454 0 0 0-2.614 1.983c-.688.828-1.206 1.822-1.54 2.95-.332 1.119-.499 2.347-.499 3.648a12.794 12.794 0 0 0 .499 3.649 8.213 8.213 0 0 0 1.542 2.95 7.33 7.33 0 0 0 2.612 1.965c1.036.477 2.264.716 3.639.716 1.376 0 2.599-.239 3.64-.716a7.34 7.34 0 0 0 2.612-1.965 8.177 8.177 0 0 0 1.54-2.952c.334-1.12.499-2.345.499-3.647Zm-4.981-4.598c.725 1.084 1.089 2.631 1.089 4.598 0 1.965-.368 3.523-1.089 4.616-.715 1.087-1.8 1.616-3.31 1.616-1.509 0-2.585-.527-3.288-1.616-.714-1.093-1.076-2.651-1.076-4.616 0-1.967.362-3.514 1.072-4.598.707-1.076 1.783-1.597 3.292-1.597 1.51 0 2.595.521 3.31 1.597Zm33.206 12.607-.833-2.304c-.115-.33-.434-.21-.434-.21a7.635 7.635 0 0 1-1.579.455c-.566.089-1.195.132-1.861.132-1.644 0-2.95-.488-3.885-1.453-.937-.967-1.466-2.531-1.46-4.642.007-1.924.473-3.371 1.306-4.475.824-1.095 2.087-1.655 3.768-1.655 1.399 0 2.47.161 3.588.512 0 0 .264.117.394-.234l.302-.833c.168-.462.331-.91.536-1.486.091-.263-.133-.371-.213-.401-.44-.172-1.484-.454-2.267-.575a17.533 17.533 0 0 0-2.548-.167c-1.423 0-2.699.243-3.784.726a7.848 7.848 0 0 0-2.735 1.983c-.729.829-1.282 1.822-1.651 2.95-.368 1.117-.557 2.351-.557 3.655 0 2.818.764 5.089 2.26 6.759 1.506 1.675 3.762 2.523 6.707 2.523 1.738 0 3.523-.356 4.809-.855 0 0 .245-.123.137-.405Zm16.889-7.392c.049-.347.349-2.47-.347-4.905-.289-1.087-1.002-2.189-1.471-2.692-.742-.798-1.466-1.356-2.186-1.664a8.344 8.344 0 0 0-3.289-.668c-1.436 0-2.742.243-3.796.74a7.542 7.542 0 0 0-2.648 2.017c-.697.844-1.219 1.848-1.556 2.987-.336 1.13-.503 2.366-.503 3.668-.012 1.242.163 2.48.519 3.67.33 1.087.9 2.085 1.668 2.922a7.596 7.596 0 0 0 2.891 1.915c1.156.449 2.56.679 4.172.673 3.323-.009 5.069-.751 5.789-1.148.128-.071.249-.195.098-.548l-.749-2.107c-.119-.312-.434-.199-.434-.199l-.231.087c-.816.312-2.004.767-4.489.761-1.785-.002-3.104-.529-3.935-1.352-.846-.839-1.264-2.075-1.336-3.822l11.495.009s.303-.004.332-.299c0-.008.002-.023.006-.045Zm-3.579-2.504h-8.2c.163-1.093.46-2 .925-2.711.709-1.076 1.78-1.669 3.29-1.669 1.508 0 2.501.593 3.221 1.669.473.711.679 1.657.764 2.711Zm-88.487 2.506c.047-.343.344-2.468-.351-4.907-.286-1.087-1-2.189-1.468-2.692-.74-.798-1.465-1.356-2.185-1.664a8.353 8.353 0 0 0-3.293-.668c-1.431 0-2.737.243-3.796.74a7.553 7.553 0 0 0-2.646 2.017 8.4 8.4 0 0 0-1.557 2.987c-.334 1.13-.504 2.366-.504 3.668-.012 1.243.165 2.48.523 3.67a7.608 7.608 0 0 0 1.664 2.922 7.615 7.615 0 0 0 2.893 1.915c1.154.449 2.558.679 4.172.673 3.319-.009 5.067-.751 5.791-1.148.126-.071.248-.195.096-.548l-.751-2.107c-.117-.312-.431-.199-.431-.199l-.226.085c-.816.313-2.007.769-4.497.763-1.785-.002-3.101-.529-3.932-1.352-.848-.839-1.265-2.075-1.339-3.822l11.497.009s.304-.004.334-.299l.006-.043Zm-3.581-2.506h-8.204c.167-1.093.462-2 .931-2.711.705-1.076 1.779-1.669 3.288-1.669 1.508 0 2.506.593 3.222 1.669.47.711.676 1.657.763 2.711Zm-26.581-.325a38.12 38.12 0 0 0-1.896-.224 23.923 23.923 0 0 0-1.793-.052c-.985 0-1.937.124-2.833.362a7.44 7.44 0 0 0-2.397 1.113 5.53 5.53 0 0 0-1.67 1.896c-.406.759-.617 1.651-.617 2.651 0 1.019.178 1.902.532 2.624a4.756 4.756 0 0 0 1.497 1.799 6.337 6.337 0 0 0 2.34 1.015c.903.206 1.926.31 3.043.31 1.171 0 2.339-.097 3.493-.291a68.836 68.836 0 0 0 2.898-.561c.379-.089.802-.207.802-.207.289-.069.265-.373.265-.373l-.006-10.516c0-2.303-.617-4.013-1.827-5.073-1.208-1.057-2.985-1.59-5.28-1.59-1.033.01-2.064.105-3.082.284 0 0-2.508.488-3.542 1.295 0 0-.228.143-.102.457l.813 2.187c.1.284.378.187.378.187s.084-.035.186-.096c2.213-1.202 5.011-1.167 5.011-1.167 1.241 0 2.199.254 2.842.744.626.484.945 1.206.945 2.74v.486Zm-3.099 8.524c-2.341.144-3.378-.672-3.371-.67-.451-.362-.514-.449-.66-.681-.232-.351-.347-.855-.347-1.499 0-1.006.336-1.733 1.026-2.223-.006.002.992-.859 3.332-.831 1.651.024 3.121.265 3.121.265v5.227s-1.457.313-3.101.412Zm93.059-12.26c.201-.522.759-2.097.867-2.412a.318.318 0 0 0-.068-.344.313.313 0 0 0-.103-.068c-.197-.076-1.176-.282-1.928-.327-1.447-.087-2.248.151-2.964.477-.713.321-1.503.841-1.943 1.431v-1.401c0-.193-.139-.347-.334-.347h-2.944a.334.334 0 0 0-.334.347v17.147a.353.353 0 0 0 .106.248.35.35 0 0 0 .25.099h3.017a.363.363 0 0 0 .134-.026.358.358 0 0 0 .188-.189.343.343 0 0 0 .025-.134v-8.564c0-1.149.131-2.295.382-3.015.247-.716.588-1.286 1.009-1.692a3.434 3.434 0 0 1 1.418-.852 5.502 5.502 0 0 1 1.541-.217c.603 0 1.262.152 1.262.152.223.024.345-.113.419-.313Zm-27.271-9.958c.087-.261-.132-.367-.213-.399-.368-.113-.7-.189-1.136-.272a8.98 8.98 0 0 0-1.564-.119c-2.078 0-3.716.586-4.868 1.746-1.145 1.152-1.919 2.907-2.31 5.215l-.141.777h-2.605s-.323-.013-.391.334l-.425 2.39c-.034.23.07.373.373.373h2.538l-2.577 14.388c-.199 1.156-.431 2.111-.685 2.833-.254.714-.501 1.245-.805 1.638-.291.373-.573.653-1.05.807-.397.134-.852.195-1.353.195-.28 0-.649-.048-.924-.102a2.767 2.767 0 0 1-.619-.197s-.299-.113-.416.182c-.091.245-.772 2.108-.85 2.336-.083.23.032.41.173.46.344.124.696.226 1.052.308.64.152 1.182.163 1.686.163 1.056 0 2.023-.15 2.82-.443a5.274 5.274 0 0 0 2.123-1.479c.673-.74 1.091-1.514 1.497-2.575.45-1.255.788-2.547 1.011-3.861l2.588-14.655h3.787s.314.013.384-.334l.429-2.391c.031-.227-.067-.37-.377-.37h-3.675c.004-.014.011-.059.022-.13.059-.37.231-1.444.586-2.463.175-.464.45-.883.807-1.227.267-.274.598-.478.963-.595.364-.121.776-.18 1.232-.18.52.002 1.037.083 1.533.239.376.113.423.004.497-.178l.883-2.414Zm-51.899 24.808c.195 0 .329-.154.329-.349v-24.535c0-.191-.134-.347-.329-.347h-3.05c-.191 0-.325.156-.325.345v24.539c0 .191.132.347.327.347h3.048Z" clip-rule="evenodd"/></g><defs><clipPath id="a"><path fill="#fff" d="M135.438 61.826H335v138.826H135.438z"/></clipPath></defs></svg>