<svg xmlns="http://www.w3.org/2000/svg" width="470" height="262" fill="none" viewBox="0 0 470 262"><path fill="#fff" d="M343.111 170.101H297.86v7.503h45.251zm41.528-43.934-14.95 21.308-14.95-21.308h-10.311l20.735 29.27v22.224h8.993v-22.224h.057l20.678-29.27zm-271.105 24.745-.687-.516.63-.629c2.405-2.464 3.838-5.786 3.838-9.28 0-7.905-7.275-14.32-16.211-14.32H76.876v51.494h25.546c9.451 0 17.184-6.816 17.184-15.179 0-4.467-2.234-8.649-6.072-11.57m-27.666-17.241h15.179c4.239 0 7.619 3.036 7.619 6.816s-3.437 6.816-7.619 6.816H85.869zm16.554 36.43H85.869v-15.294h16.553c4.754 0 8.592 3.437 8.592 7.675 0 4.239-3.838 7.619-8.592 7.619m167.428-9.623-14.893-34.311h-9.909l22.683 51.494h4.181l22.74-51.494h-9.909zm-114.387-35.342c-14.778 0-26.75 12.029-26.75 26.807s12.029 26.749 26.807 26.749 26.75-12.028 26.75-26.806-11.972-26.75-26.807-26.75m0 44.735c-9.909 0-17.986-8.019-17.986-17.928s8.02-17.986 17.986-17.986c9.909 0 17.986 8.019 17.986 17.986-.058 9.852-8.077 17.871-17.986 17.928m71.256-10.539-29.27-33.165h-4.468v51.494h8.993v-33.222l29.213 33.222h4.468v-51.494h-8.936zm93.766-34.196c-9.908 0-17.986 8.019-17.986 17.986a17.95 17.95 0 0 0 11.097 16.628 18 18 0 0 0 6.889 1.358 17.95 17.95 0 0 0 12.731-5.256 17.94 17.94 0 0 0 5.255-12.73c-.057-9.967-8.076-17.986-17.986-17.986m0 28.296a10.364 10.364 0 0 1-10.367-10.367c0-5.728 4.639-10.368 10.367-10.368s10.368 4.64 10.368 10.368c-.057 5.728-4.64 10.367-10.368 10.367M125.563 91.513v17.47h-4.811V83.208h5.384l7.961 14.262 7.963-14.262h5.327v25.775h-4.754v-17.47L135.816 104h-3.437zm205.405-8.305v4.41h7.618v21.365h4.812V87.618h7.617v-4.41zm-27.781 0v4.41h7.618v21.365h4.812V87.618h7.56v-4.41zm-43.075 0h-4.811v25.775h4.811zm-63.98 15.35h3.894l7.218 10.425h5.498l-7.274-10.538c4.124-.574 7.274-3.724 7.274-7.562 0-4.238-3.895-7.675-8.649-7.675H191.32v25.775h4.812zm0-11.284h7.961c2.234 0 4.068 1.604 4.068 3.61 0 2.004-1.834 3.608-4.068 3.608h-7.961zM169.726 91.8l3.723 8.077h-7.504zm-1.146-8.591-11.914 25.775h5.155l2.291-4.926h11.285l2.291 4.926h5.155l-11.972-25.775zm67.132 0h-12.773v25.775h4.811V98.559h3.895l7.217 10.424h5.499l-7.275-10.538c4.125-.574 7.275-3.724 7.275-7.562 0-4.238-3.895-7.675-8.649-7.675m4.066 7.675c0 2.005-1.832 3.609-4.066 3.609h-7.962v-7.218h7.962c2.234 0 4.066 1.604 4.066 3.61m43.361-8.191c-7.389 0-13.403 6.014-13.403 13.403s6.014 13.404 13.403 13.404 13.403-6.015 13.403-13.404-5.957-13.403-13.403-13.403m0 21.996a8.58 8.58 0 0 1-6.079-2.514 8.575 8.575 0 0 1-2.512-6.079 8.57 8.57 0 0 1 5.301-7.94 8.6 8.6 0 0 1 3.29-.652 8.6 8.6 0 0 1 6.079 2.513 8.58 8.58 0 0 1 2.513 6.08 8.6 8.6 0 0 1-2.513 6.078 8.58 8.58 0 0 1-6.079 2.514m117.252 22.166h-2.063v-.802h4.984v.802h-2.063v5.671h-.858zm4.524 5.671h-.802v-6.473h1.261l1.603 4.984.172.516.172-.516 1.662-4.984h1.259v6.473h-.858v-5.499c-.058.172-.115.401-.172.573l-1.662 4.926h-.859l-1.604-4.926c-.057-.172-.114-.401-.172-.573z"/></svg>