<svg xmlns="http://www.w3.org/2000/svg" width="470" height="262" fill="none"><g fill="#2C2C2C" clip-path="url(#a)"><path d="M235.005 57.464c-20.299 0-38.683 8.234-51.993 21.553-13.314 13.29-21.543 31.684-21.543 51.993 0 20.294 8.229 38.675 21.543 51.97 13.31 13.302 31.694 21.551 51.993 21.551 20.304 0 38.698-8.249 51.988-21.551 13.309-13.295 21.52-31.676 21.52-51.97 0-20.309-8.211-38.703-21.52-51.992-13.29-13.32-31.684-21.554-51.988-21.554Zm0-8.91c45.528 0 82.442 36.918 82.442 82.456 0 45.523-36.914 82.437-82.442 82.437-45.523 0-82.452-36.914-82.452-82.437 0-45.538 36.929-82.457 82.452-82.457Z"/><path d="M196.011 130.338c0-4.805-3.188-7.534-7.701-7.534h-2.763v15.074h2.684c4.197 0 7.78-2.281 7.78-7.54Zm49.137 5.424-20.35 16.024-18.599-14.643c-2.684 6.447-9.169 10.925-16.637 10.925h-15.918v-35.459h15.918c8.345 0 14.359 5.306 16.632 10.96l18.604-14.627 6.891 5.423-17.051 13.401 3.277 2.565 17.045-13.394 6.901 5.408-17.048 13.417 3.272 2.569 17.063-13.418v-12.304h12.37v25.109h12.339v10.393h-24.709v-12.349Zm40.378 1.961h12.334v10.388h-24.716v-35.502h12.382v25.114Z"/></g><defs><clipPath id="a"><path fill="#fff" d="M152 48h166v166H152z"/></clipPath></defs></svg>