<svg xmlns="http://www.w3.org/2000/svg" width="470" height="262" fill="none"><path fill="#2C2C2C" d="M335.834 143.48c1.093 5.066 3.974 6.854 9.935 6.854 5.265 0 8.146-1.887 8.146-4.867 0-4.272-3.875-4.57-11.921-6.656-9.438-2.484-15.498-4.57-18.28-6.557-5.265-3.676-7.749-8.941-7.749-15.597 0-13.113 10.332-21.657 28.313-21.657 17.485 0 27.717 7.649 28.91 21.359h-20.565c-.695-4.073-3.477-5.961-8.742-5.961-4.57 0-6.855 1.49-6.855 4.57 0 3.576 3.477 4.272 10.034 5.961 8.444 2.185 15.1 3.477 19.372 6.457 5.961 3.974 8.643 8.842 8.643 15.796 0 14.703-10.53 23.346-30.201 23.346-18.179 0-28.809-8.544-30.2-23.048h21.16Zm-79.872-5.166c-1.192 17.782-12.915 28.214-32.386 28.214-21.657 0-34.771-13.71-34.771-35.764 0-22.154 13.312-35.764 34.373-35.764 19.67 0 31.194 9.934 32.486 27.518H235c-.596-6.854-4.47-10.53-11.524-10.53-8.543 0-12.716 6.258-12.716 18.776 0 12.318 4.57 18.676 13.412 18.676 6.556 0 10.729-3.973 11.424-11.225h20.366v.099Zm-4.669-41.327h22.153l11.425 43.711 12.219-43.711h21.359l-22.75 67.752h-21.657l-22.749-67.752Zm-132.128-1.888c-2.583 0-5.165.994-7.053 2.98l-14.206 14.207c-3.875 3.874-3.875 10.232 0 14.206l40.135 40.036 40.035-40.135c3.875-3.875 3.875-10.233 0-14.207L163.87 98.08c-1.987-1.987-4.57-2.98-7.053-2.98-2.583 0-5.166.993-7.153 2.98l-11.623 11.722-11.723-11.722a10.084 10.084 0 0 0-7.153-2.98Z"/></svg>