<svg xmlns="http://www.w3.org/2000/svg" width="470" height="262" fill="none"><path fill="#2C2C2C" d="M346.62 171.49h-46.846v7.768h46.846v-7.768ZM389.612 126.008l-15.477 22.059-15.477-22.059h-10.674l21.466 30.301v23.008h9.31v-23.008h.059l21.407-30.301h-10.614ZM108.951 151.625l-.711-.534.652-.652c2.49-2.55 3.973-5.989 3.973-9.607 0-8.183-7.531-14.824-16.782-14.824H71v53.309h26.447c9.784 0 17.79-7.056 17.79-15.714 0-4.625-2.313-8.954-6.286-11.978ZM80.31 133.776h15.714c4.388 0 7.887 3.143 7.887 7.056 0 3.914-3.558 7.057-7.887 7.057H80.31v-14.113Zm17.137 37.714H80.31v-15.833h17.137c4.922 0 8.895 3.558 8.895 7.946s-3.973 7.887-8.895 7.887ZM270.777 161.528l-15.418-35.52h-10.258l23.482 53.309h4.329l23.541-53.309h-10.258l-15.418 35.52ZM152.358 124.94c-15.299 0-27.693 12.453-27.693 27.752s12.453 27.692 27.752 27.692 27.693-12.452 27.693-27.751c0-15.299-12.394-27.693-27.752-27.693Zm0 46.312c-10.259 0-18.62-8.301-18.62-18.56 0-10.259 8.302-18.62 18.62-18.62 10.258 0 18.62 8.302 18.62 18.62-.06 10.199-8.362 18.501-18.62 18.56ZM226.125 160.342l-30.301-34.334h-4.626v53.309h9.31v-34.393l30.243 34.393h4.625v-53.309h-9.251v34.334ZM323.197 124.94c-10.258 0-18.62 8.302-18.62 18.62a18.576 18.576 0 0 0 18.62 18.62 18.576 18.576 0 0 0 18.62-18.62c-.059-10.318-8.361-18.62-18.62-18.62Zm0 29.294c-5.93 0-10.733-4.803-10.733-10.733 0-5.93 4.803-10.733 10.733-10.733 5.93 0 10.733 4.803 10.733 10.733-.059 5.93-4.803 10.733-10.733 10.733ZM121.404 90.132v18.086h-4.981V81.534h.059-.059 5.574l8.242 14.765 8.243-14.765h5.515v26.684h-4.922V90.132l-7.057 12.927h-3.558l-7.056-12.927ZM334.049 81.534V86.1h7.887v22.118h4.981V86.1h7.886v-4.566h-20.754ZM305.289 81.534V86.1h7.887v22.118h4.981V86.1h7.827v-4.566h-20.695ZM260.696 81.534h-4.981v26.684h4.981V81.534ZM194.46 97.426h4.032l7.472 10.792h5.692l-7.531-10.91c4.27-.594 7.531-3.855 7.531-7.828 0-4.388-4.032-7.946-8.954-7.946h-13.223v26.684h4.981V97.426Zm0-11.682h8.242c2.313 0 4.211 1.66 4.211 3.736 0 2.075-1.898 3.736-4.211 3.736h-8.242v-7.472ZM167.123 90.428l3.855 8.362h-7.769l3.914-8.362Zm-1.186-8.894-12.334 26.684h5.337l2.372-5.1h11.682l2.372 5.1h5.337l-12.394-26.684h-2.372ZM235.435 81.534h-13.223v26.684h4.981V97.426h4.032l7.472 10.792h5.692l-7.531-10.91c4.27-.594 7.531-3.855 7.531-7.828 0-4.388-4.032-7.946-8.954-7.946Zm4.21 7.946c0 2.075-1.897 3.736-4.21 3.736h-8.242v-7.472h8.242c2.313 0 4.21 1.66 4.21 3.736ZM284.534 81c-7.649 0-13.875 6.226-13.875 13.876 0 7.649 6.226 13.876 13.875 13.876 7.65 0 13.876-6.227 13.876-13.876 0-7.65-6.167-13.876-13.876-13.876Zm0 22.771a8.883 8.883 0 0 1-8.894-8.895 8.883 8.883 0 0 1 8.894-8.895 8.883 8.883 0 0 1 8.895 8.895 8.883 8.883 0 0 1-8.895 8.895ZM405.919 126.719h-2.135v-.83h5.159v.83h-2.135v5.871h-.889v-5.871ZM410.603 132.59h-.83v-6.701h1.305l1.66 5.159.178.534.178-.534 1.72-5.159h1.304v6.701h-.889v-5.693c-.06.178-.119.415-.178.593l-1.72 5.1h-.889l-1.661-5.1c-.059-.178-.118-.415-.178-.593v5.693Z"/></svg>