<svg xmlns="http://www.w3.org/2000/svg" width="470" height="262" fill="none" viewBox="0 0 470 262"><path fill="#fff" d="M136.591 175.72c-7.524-.299-13.68-2.358-18.494-6.182-.918-.73-3.107-2.92-3.842-3.844-1.952-2.455-3.279-4.843-4.164-7.494-2.724-8.158-1.322-18.863 4.01-30.612 4.565-10.059 11.608-20.035 23.897-33.852 1.81-2.033 7.201-7.98 7.236-7.98.013 0-.281.51-.651 1.13-3.195 5.352-5.929 11.656-7.418 17.113-2.393 8.758-2.104 16.273.845 22.101 2.034 4.014 5.522 7.492 9.444 9.414 6.866 3.364 16.918 3.642 29.194.814.845-.196 42.726-11.313 93.07-24.706 50.343-13.395 91.54-24.345 91.547-24.336.014.012-116.962 50.067-177.687 76.035-9.616 4.111-12.188 5.149-16.709 6.737-11.557 4.058-21.91 5.995-30.278 5.662"/></svg>