<svg xmlns="http://www.w3.org/2000/svg" width="470" height="262" fill="none" viewBox="0 0 470 262"><path fill="#fff" d="M368.729 92.346v67.028h-15.251V92.346zm-20.866 22.622v44.529h-13.556v-3.838a18.3 18.3 0 0 1-5.84 3.838c-2.184.939-4.552 1.429-7.084 1.429-3.185 0-6.146-.592-8.861-1.776a22.6 22.6 0 0 1-7.085-5.064c-2.021-2.143-3.613-4.634-4.797-7.472-1.123-2.899-1.675-6.023-1.675-9.351s.552-6.411 1.675-9.249c1.184-2.899 2.776-5.43 4.797-7.574a21.35 21.35 0 0 1 7.085-4.982c2.715-1.245 5.676-1.878 8.861-1.878 2.532 0 4.9.469 7.084 1.429 2.185.898 4.145 2.164 5.84 3.838v-3.838h13.556zm-24.03 32.401c2.777 0 5.043-.939 6.819-2.858q2.757-2.848 2.756-7.289c0-2.96-.918-5.41-2.756-7.288-1.776-1.899-4.063-2.859-6.819-2.859s-5.084.939-6.921 2.859c-1.777 1.898-2.675 4.328-2.675 7.288s.898 5.411 2.675 7.289c1.837 1.899 4.144 2.858 6.921 2.858m-46.632-55.023c4.022 0 7.452.572 10.29 1.695s5.227 2.695 7.187 4.716a23.1 23.1 0 0 1 4.696 7.126c1.123 2.674 1.674 5.553 1.674 8.636s-.551 5.962-1.674 8.636a22.8 22.8 0 0 1-4.696 7.126c-1.94 2.021-4.349 3.593-7.187 4.716s-6.268 1.694-10.29 1.694h-7.35v22.785h-15.516v-67.13zm-2.225 30.544c2.082 0 3.654-.204 4.798-.633 1.184-.47 2.164-1.082 2.919-1.776 1.593-1.491 2.389-3.471 2.389-5.962s-.796-4.471-2.389-5.962c-.776-.714-1.735-1.286-2.919-1.694-1.123-.47-2.716-.715-4.798-.715h-5.145v16.742zm-77.808-7.922h16.844l11.433 21.356h.184l10.188-21.356h15.598l-33.422 67.13h-15.517l15.251-30.707zm-3.001 0v44.529H180.61v-3.838a18.4 18.4 0 0 1-5.839 3.838c-2.185.939-4.553 1.429-7.085 1.429-3.185 0-6.145-.592-8.861-1.776a22.6 22.6 0 0 1-7.084-5.064c-2.021-2.143-3.614-4.634-4.798-7.472-1.123-2.899-1.674-6.023-1.674-9.351s.551-6.411 1.674-9.249c1.184-2.899 2.777-5.43 4.798-7.574a21.1 21.1 0 0 1 7.084-4.982c2.716-1.245 5.676-1.878 8.861-1.878 2.532 0 4.9.469 7.085 1.429 2.184.898 4.144 2.164 5.839 3.838v-3.838h13.557zm-24.031 32.401c2.777 0 5.043-.939 6.84-2.858q2.756-2.848 2.756-7.289c0-2.96-.919-5.41-2.756-7.288-1.776-1.899-4.063-2.859-6.84-2.859-2.776 0-5.084.939-6.921 2.859-1.776 1.898-2.654 4.328-2.654 7.288s.898 5.411 2.654 7.289c1.837 1.899 4.145 2.858 6.921 2.858m-45.999-55.023c4.023 0 7.453.572 10.29 1.695 2.838 1.123 5.227 2.695 7.187 4.716a23.1 23.1 0 0 1 4.696 7.126c1.123 2.674 1.674 5.553 1.674 8.636s-.551 5.962-1.674 8.636a22.8 22.8 0 0 1-4.696 7.126c-1.939 2.021-4.349 3.593-7.187 4.716s-6.267 1.694-10.29 1.694h-7.35v22.785h-15.516v-67.13zm-2.205 30.544c2.083 0 3.655-.204 4.798-.633 1.185-.47 2.165-1.082 2.92-1.776 1.592-1.491 2.389-3.471 2.389-5.962s-.797-4.471-2.389-5.962c-.776-.714-1.735-1.286-2.92-1.694-1.123-.47-2.715-.715-4.798-.715h-5.145v16.742z"/></svg>