<svg xmlns="http://www.w3.org/2000/svg" width="470" height="262" fill="none"><mask id="a" width="234" height="58" x="127" y="102" maskUnits="userSpaceOnUse" style="mask-type:luminance"><path fill="#fff" d="M360.933 102H127v58h233.933v-58Z"/></mask><g fill="#2C2C2C" mask="url(#a)"><path d="m250.816 148.893.607 10.007a39.09 39.09 0 0 1-9.628 1.044c-9.989 0-15.315-4.209-15.315-14.463 0-8.037.152-16.869.228-21.702h-5.176v-7.583c7.772-1.289 10.218-5.685 11.374-14.177h8.547c-.303 3.507-.568 8.586-.568 12.035h9.079v9.725h-9.211v17.514c0 6.784 1.363 8.642 6.046 8.642a8.305 8.305 0 0 0 4.017-1.042Zm47.69-10.861v-8.871c0-11.371-4.984-16.508-19.105-16.508-7.923 0-13.572 1.382-22.423 1.382.493 8 .51 17.876.474 23.977-.039 6.104-.209 17.363-.474 20.965h15.163c-.342-3.602-.663-13.97-.607-20.965 0-3.979 0-8.795.209-15.258a17.216 17.216 0 0 1 5.516-.908c5.307 0 7.012 2.482 7.012 9.343v6.823c0 6.218-.207 17.363-.474 20.965h15.163c-.189-3.602-.491-13.97-.454-20.965v.02Zm-101.442 1.991c-1.632 0-4.398 0-5.8-.114v.303c0 6.444 4.226 10.52 12.054 10.52a24.558 24.558 0 0 0 12.113-3.26l.549 10.063a40.258 40.258 0 0 1-14.937 2.446c-15.902 0-23.541-5.441-24.867-20.186-1.896 0-4.549-.19-8.284-.209-.095 2.596-.19 4.891-.19 6.805-.092 4.205.13 8.412.664 12.586-8.718 0-15.467.967-22.329.967-12.982 0-17.55-5.384-17.55-14.558s7.335-13.704 23.18-13.704h2.181v-.947c0-6.293-1.896-8.928-8.304-8.928a28.18 28.18 0 0 0-12.452 3.318l-.53-10.046a47.055 47.055 0 0 1 16.358-2.465c13.893 0 19.125 4.568 19.125 17.174v2.045c3.393 0 5.875 0 8.149.209 1.403-12.433 7.582-19.389 23.182-19.389 12.851 0 18.763 5.401 18.763 13.533.078 9.458-7.107 13.837-21.075 13.837Zm-43.349 10.651c-.228-3.051-.134-7.467-.095-11.239h-1.895c-6.596 0-9.231 2.218-9.231 6.121 0 3.905 2.066 5.688 6.9 5.688a18.175 18.175 0 0 0 4.321-.57Zm41.7-18.309c6.101 0 9.021-2.047 9.021-6.444 0-3.128-2.123-4.833-5.402-4.833-5.781 0-7.789 4.624-7.789 10.935v.228c1.098.095 2.652.114 4.112.114h.058ZM344.262 158.9c-8.719 0-15.466.967-22.328.967-12.984 0-17.553-5.383-17.553-14.556 0-9.174 7.318-13.704 23.183-13.704h2.179v-.947c0-6.293-1.895-8.928-8.302-8.928a28.179 28.179 0 0 0-12.453 3.317l-.531-10.047a47.049 47.049 0 0 1 16.452-2.502c13.913 0 19.125 4.568 19.125 17.174 0 6.747-.435 12.528-.435 16.603a84.202 84.202 0 0 0 .549 12.7l.114-.077Zm-14.633-8.302c-.226-3.051-.132-7.466-.095-11.238h-1.895c-6.596 0-9.231 2.217-9.231 6.121 0 3.905 2.066 5.686 6.9 5.686a18.076 18.076 0 0 0 4.265-.493l.056-.076ZM349.057 122.375a6.062 6.062 0 0 1-1.156-2.008 7.314 7.314 0 0 1-.399-2.427 7.091 7.091 0 0 1 .418-2.426c.269-.7.667-1.344 1.176-1.895a5.673 5.673 0 0 1 1.894-1.345 6.462 6.462 0 0 1 4.986 0 5.537 5.537 0 0 1 1.895 1.345 6.013 6.013 0 0 1 1.175 1.895c.281.777.422 1.599.418 2.426a7.141 7.141 0 0 1-.418 2.427 6.054 6.054 0 0 1-1.175 2.008 5.665 5.665 0 0 1-1.895 1.346 6.462 6.462 0 0 1-4.986 0 5.537 5.537 0 0 1-1.933-1.346Zm2.312.418a4.81 4.81 0 0 0 2.067.435 4.657 4.657 0 0 0 2.067-.435 4.597 4.597 0 0 0 1.515-1.156 5.065 5.065 0 0 0 .948-1.688 6.287 6.287 0 0 0 .323-1.989 6.194 6.194 0 0 0-.323-1.895 5.025 5.025 0 0 0-.948-1.668 4.495 4.495 0 0 0-1.515-1.157 5.163 5.163 0 0 0-4.114 0 4.498 4.498 0 0 0-1.516 1.157 4.99 4.99 0 0 0-.948 1.668 6.133 6.133 0 0 0-.322 1.895 5.84 5.84 0 0 0 .701 2.88 4.729 4.729 0 0 0 2.065 1.953Zm-.131-8.644h2.028a3.283 3.283 0 0 1 2.254.626c.449.406.698.988.682 1.592a2.5 2.5 0 0 1-.131.854c-.087.24-.217.466-.379.663a2.157 2.157 0 0 1-.551.474 2.03 2.03 0 0 1-.644.265l1.895 3.051a1.113 1.113 0 0 1-.321.133h-.303c-.178 0-.352-.039-.513-.114a1.001 1.001 0 0 1-.417-.416l-1.516-2.521h-.928v2.956h-1.12l-.036-7.563Zm2.254 3.468c1.025 0 1.535-.435 1.535-1.326a1.048 1.048 0 0 0-.396-.891 2.21 2.21 0 0 0-1.309-.302h-.986v2.463l1.156.056Z"/></g></svg>