<svg xmlns="http://www.w3.org/2000/svg" width="470" height="262" fill="none" viewBox="0 0 470 262"><path fill="#fff" d="M175.314 106.948c-1.166-4.308-4.455-7.664-8.834-8.834C158.745 96 127.428 96 127.428 96s-31.242 0-38.976 2.119c-4.309 1.165-7.664 4.526-8.906 8.829-2.042 7.739-2.042 24.014-2.042 24.014s0 16.275 2.042 24.085c1.242 4.232 4.597 7.664 8.905 8.834C96.191 166 127.428 166 127.428 166s31.312 0 39.052-2.119c4.379-1.165 7.663-4.597 8.834-8.834 2.119-7.81 2.119-24.085 2.119-24.085s0-16.275-2.119-24.014M117.504 146v-30l25.909 14.962zM198.695 161.692v-19.159l-11.571-42.154h10.035l4.161 18.688c.948 4.308 1.936 10.476 2.372 12.701h.071c.436-2.154 1.389-8.322 2.372-12.625l4.308-18.759h10.036l-11.713 42.155v19.158h-10.071zM244.969 137.46v3.578c0 15.91-3.502 21.313-13.943 21.313s-13.943-5.545-13.943-21.313v-3.578c0-16.275 4.161-21.46 14.161-21.46s13.72 5.403 13.72 21.46zm-10.218-3.432c0-8.611-.801-11.094-3.649-11.094s-3.796 2.483-3.796 11.094v10.294c0 8.906.877 11.166 3.649 11.166 2.99 0 3.796-2.26 3.796-11.166zM249.201 150.526v-33.649h10.071v32.59c0 3.943.877 5.692 2.955 5.692 1.571 0 3.102-.695 4.197-3.614v-34.668h10.071v44.744h-8.54l-.583-6.021h-.036c-1.242 4.267-3.685 6.898-8.758 6.898-6.716 0-9.382-4.308-9.382-11.972z"/><path fill="#fff" d="M283.575 161.621v-52.63h-9.964v-8.612h30v8.612h-9.965v52.625h-10.071z"/><path fill="#fff" d="M300.838 150.526v-33.649h10.071v32.59c0 3.943.877 5.692 2.955 5.692 1.571 0 3.102-.695 4.197-3.614v-34.668h10.071v44.744h-8.541l-.582-6.021h-.036c-1.242 4.267-3.685 6.898-8.758 6.898-6.716 0-9.382-4.308-9.382-11.972zM361.675 135.782v5.986c0 14.45-3.067 20.512-9.853 20.512-4.126 0-7.228-1.825-8.834-4.891h-.036l-.659 4.232h-8.758V98.119h9.706v12.848c0 3.355.071 6.716-.218 10.73h.112c1.677-3.355 4.561-5.692 9.087-5.692 6.498 0 9.453 4.232 9.453 19.782zm-10.294 0c0-10.365-.877-12.625-3.685-12.625-1.895 0-3.725 1.677-4.45 4.891v24.708c.877 1.713 2.408 2.443 4.014 2.443 3.031 0 4.126-3.213 4.126-12.919v-6.498zM392.253 142.457h-16.68v2.443c0 7.881.182 10.583 3.431 10.583s3.943-2.484 4.014-7.593l8.87.401c.659 9.746-4.379 14.049-12.92 14.049-10.364 0-13.431-6.786-13.431-19.123v-7.81c0-12.991 3.431-19.341 13.72-19.341s12.991 5.403 12.991 18.905v7.481zm-16.675-9.012v3.396h6.639v-3.396c0-8.246-.329-10.583-3.355-10.583s-3.284 2.408-3.284 10.583"/></svg>