<svg xmlns="http://www.w3.org/2000/svg" width="470" height="262" fill="none"><g fill="#2C2C2C" clip-path="url(#a)"><path d="M345.886 151.944c-.696 0-1.176-.483-1.176-1.178V116.27h-11.719c-.696 0-1.177-.48-1.177-1.176v-4.758c0-.697.481-1.179 1.177-1.179h31.193c.696 0 1.175.483 1.175 1.179v4.758c0 .695-.479 1.176-1.175 1.176h-11.718v34.496c0 .695-.482 1.178-1.176 1.178h-5.404Zm-89.765-17.223-6.152-17.647-6.206 17.647h12.358Zm13.643 15.829c.269.697-.16 1.394-.909 1.394h-5.563c-.803 0-1.286-.374-1.554-1.126l-3.155-9.089h-17.28l-3.16 9.089c-.266.753-.749 1.126-1.55 1.126h-5.242c-.696 0-1.178-.697-.911-1.394l14.499-40.321c.268-.751.75-1.07 1.551-1.07h7.169c.803 0 1.338.319 1.606 1.07l14.499 40.321Zm41.559-4.383c3.422 0 5.724-1.656 7.597-4.492l-8.666-9.306c-3.318 1.873-5.459 3.742-5.459 7.487 0 3.691 2.995 6.311 6.528 6.311Zm2.407-31.341c-2.781 0-4.386 1.767-4.386 4.119 0 1.819.961 3.423 3.155 5.777 3.799-2.194 5.404-3.531 5.404-5.883 0-2.195-1.39-4.013-4.173-4.013Zm23.703 35.62c.695.749.268 1.498-.591 1.498h-6.794c-.909 0-1.391-.215-1.979-.911l-4.066-4.491c-2.728 3.637-6.53 6.364-12.842 6.364-7.811 0-13.965-4.706-13.965-12.78 0-6.206 3.319-9.523 8.349-12.303-2.463-2.834-3.585-5.83-3.585-8.449 0-6.633 4.654-11.179 11.662-11.179 7.169 0 11.557 4.227 11.557 10.483 0 5.348-3.851 8.341-7.918 10.588l5.993 6.474 3.37-5.885c.427-.695.909-.963 1.764-.963h5.189c.857 0 1.339.59.805 1.499l-5.993 10.266 9.044 9.789Zm-53.393 1.498c.695 0 1.179-.483 1.179-1.178V116.27h11.715c.696 0 1.177-.48 1.177-1.176v-4.758c0-.697-.481-1.179-1.177-1.179h-31.192c-.697 0-1.177.483-1.177 1.179v4.758c0 .695.48 1.176 1.177 1.176h11.715v34.496c0 .695.483 1.178 1.178 1.178h5.405ZM125.7 172.751c9.074 7.024 20.462 11.244 32.819 11.244 13.522 0 25.849-5.02 35.257-13.261.114-.101.057-.167-.055-.101-4.222 2.82-16.254 8.974-35.202 8.974-16.466 0-26.872-3.674-32.749-6.954-.112-.055-.154.029-.07.098Zm36.452 2.735c13.17 0 27.642-3.59 36.298-10.697 2.368-1.936 4.625-4.514 6.645-7.977 1.164-1.993 2.301-4.36 3.228-6.688.041-.113-.029-.168-.114-.041-8.05 11.846-31.358 19.234-55.426 19.234-17.012 0-35.316-5.44-42.482-15.828-.071-.096-.141-.055-.098.056 6.676 14.189 26.929 21.941 51.949 21.941Zm-14.39-23.54c-27.391 0-40.307-12.757-42.65-21.463-.029-.126-.112-.098-.112.015 0 2.931.294 6.713.798 9.223.241 1.222 1.236 3.14 2.694 4.669 6.632 6.913 23.169 16.601 51.807 16.601 39.018 0 47.94-12.997 49.761-17.272 1.303-3.056 1.978-8.581 1.978-13.221 0-1.123-.028-2.02-.071-2.9 0-.143-.082-.155-.111-.016-1.95 10.459-35.286 24.364-64.094 24.364Zm-37.602-44.399c-1.57 3.115-3.31 8.37-3.827 11.09-.227 1.165-.13 1.725.279 2.595 3.283 6.965 19.889 18.11 58.625 18.11 23.632 0 41.989-5.805 44.963-16.4.548-1.95.577-4.009-.126-6.784-.786-3.101-2.258-6.716-3.504-9.255-.042-.083-.114-.071-.099.027.462 13.896-38.289 22.852-57.841 22.852-21.178 0-38.847-8.438-38.847-19.093 0-1.024.212-2.048.476-3.113.027-.098-.057-.114-.099-.029Zm83.702-17.06c.225.352.337.728.337 1.234 0 5.944-18.192 16.459-47.151 16.459-21.278 0-25.262-7.893-25.262-12.913 0-1.795.689-3.63 2.204-5.495.083-.111.013-.154-.083-.072a53.634 53.634 0 0 0-7.532 7.825c-1.065 1.345-1.726 2.537-1.726 3.252 0 10.403 26.086 17.945 50.476 17.945 25.989 0 37.587-8.484 37.587-15.939 0-2.665-1.037-4.22-3.691-7.236-1.722-1.962-3.351-3.56-5.076-5.132-.083-.069-.141-.013-.083.071Zm-7.967-5.944c-8.021-4.807-17.335-7.542-27.376-7.542-10.111 0-19.706 2.83-27.755 7.765-2.414 1.486-3.773 2.677-3.773 4.208 0 4.512 10.545 9.364 29.255 9.364 18.515 0 32.876-5.314 32.876-10.43 0-1.22-1.068-2.075-3.227-3.365Z"/></g><defs><clipPath id="a"><path fill="#fff" d="M105 77h260.359v107H105z"/></clipPath></defs></svg>