<svg width="470" height="262" viewBox="0 0 470 262" fill="none" xmlns="http://www.w3.org/2000/svg">
<path d="M273.385 119.83L267.224 130.209H272.314L273.385 119.83ZM168.986 111.057H164.031L154.924 132.352C156.33 132.151 160.549 131.482 161.553 131.214C162.825 130.812 163.83 129.607 165.303 126.459C166.776 123.379 168.919 117.754 170.125 114.874C171.263 111.995 170.192 110.99 168.986 111.057ZM362.114 108.044C364.793 108.044 365.998 110.321 363.387 112.932C360.842 115.544 334.725 144.071 333.788 145.076C332.917 146.08 332.516 147.085 334.056 147.085H349.86L348.453 150.701H323.944C321.065 150.701 319.993 148.692 322.739 145.745L353.007 113.133C354.011 111.995 353.744 111.526 352.739 111.526H338.409L339.614 108.178L362.114 108.044ZM309.48 108.044L294.144 144.272C293.073 146.616 294.479 147.018 295.752 147.018H305.06L303.654 150.634H286.711C283.564 150.634 282.426 148.491 284.167 144.54L299.903 108.044H309.48ZM283.229 108.044L279.68 150.634H270.238L272.046 133.357H264.345L252.894 150.634H243.787L270.774 110.79C271.711 109.45 273.653 108.044 274.992 108.044H283.229ZM258.117 108.044L240.036 150.634H230.126L248.608 108.044H258.117ZM335.261 108.044L317.181 150.634H307.27L325.752 108.044H335.261ZM243.452 108.111L242.045 111.124H229.456C226.309 111.124 225.974 112.464 225.237 114.004C224.501 115.477 212.849 143 212.112 144.473C211.375 145.946 211.442 147.085 213.518 147.085H226.309L225.17 150.701H204.813C201.197 150.701 200.46 148.357 201.799 145.21L216.331 111.258C217.335 108.781 220.014 108.111 222.893 108.111H243.452ZM213.585 108.111L212.112 110.99H200.728C197.58 110.99 196.509 111.861 195.371 114.205C194.299 116.549 189.679 127.531 189.679 127.531H201.933L200.326 130.611H188.473L182.781 143.67C181.643 146.281 181.911 147.018 183.853 147.018H196.643L195.103 150.634H175.147C172.335 150.634 170.526 149.295 172.268 145.009L186.196 112.397C187.67 109.048 190.013 107.977 193.429 107.977L213.585 108.111ZM396.401 107.977L394.927 110.857H383.543C380.396 110.857 379.324 111.727 378.186 114.071C377.115 116.415 372.494 127.397 372.494 127.397H384.749L383.141 130.477H371.289L365.596 143.536C364.458 146.147 364.726 146.884 366.668 146.884H376.579H379.525L377.985 150.5H358.029C355.284 150.5 353.409 149.161 355.15 144.875L369.079 112.263C370.552 108.915 372.896 107.843 376.311 107.843L396.401 107.977ZM176.821 108.111C180.303 108.111 181.911 110.79 180.437 114.607C179.031 118.491 177.357 121.973 174.946 127.397C172.535 132.888 170.861 133.491 166.308 134.093L153.182 135.902L146.687 150.634H137.379L156.196 108.044L176.821 108.111ZM151.307 108.111L149.834 111.057L136.106 110.99C134.298 110.99 133.294 112.129 132.289 113.736C131.285 115.343 131.017 116.616 130.079 118.625C129.142 120.633 129.209 122.709 130.95 124.116C132.691 125.455 134.7 127.397 136.508 128.937C139.789 131.817 140.727 133.156 138.048 139.25C135.972 144.004 137.044 141.861 135.236 145.879C133.428 149.897 131.352 150.768 128.204 150.768H106.575L108.45 147.152H121.843C124.253 147.152 124.923 145.879 125.995 143.803C127.066 141.661 127.401 141.058 128.673 137.977C130.012 134.897 130.347 133.357 128.539 131.616C126.731 129.875 124.387 127.866 121.709 125.522C119.03 123.178 119.164 122.508 120.503 119.16C121.843 115.812 122.378 114.674 123.718 111.593C125.057 108.513 127.535 108.178 130.079 108.178L151.307 108.111ZM397.874 146.951H400.285C402.695 146.951 403.365 145.678 404.235 143.937C405.106 142.196 415.553 118.022 416.758 115.075C417.963 112.062 417.093 111.325 415.285 111.325H409.057L393.789 146.951H396.802H397.874ZM382.673 150.5L400.954 107.843H424.191C427.606 107.843 428.209 111.325 427.272 113.803C426.267 116.281 415.084 142.062 413.812 145.143C412.472 148.223 410.597 150.5 407.316 150.5H382.673ZM417.829 154.451C418.7 154.451 419.504 154.116 420.106 153.513C420.709 152.911 421.044 152.107 421.044 151.237C421.044 150.366 420.709 149.562 420.106 148.96C419.504 148.357 418.7 148.022 417.829 148.022C416.088 148.022 414.615 149.496 414.615 151.237C414.615 152.107 414.95 152.911 415.553 153.513C416.155 154.116 416.959 154.451 417.829 154.451ZM414.95 151.237C414.95 150.5 415.218 149.763 415.754 149.228C416.289 148.692 417.026 148.424 417.762 148.424C418.499 148.424 419.236 148.692 419.771 149.228C420.307 149.763 420.575 150.5 420.575 151.237C420.575 152.777 419.303 154.116 417.695 154.116C416.959 154.116 416.222 153.848 415.687 153.246C415.285 152.777 414.95 152.04 414.95 151.237ZM416.49 149.562H418.164C419.035 149.562 419.236 150.232 419.236 150.5C419.236 150.902 419.035 151.17 418.7 151.304C418.968 151.438 419.102 151.504 419.102 152.174C419.102 152.643 419.102 152.777 419.236 152.844V152.911H418.432C418.365 152.777 418.365 152.576 418.365 152.241C418.365 151.772 418.365 151.638 417.829 151.638H417.093V152.978H416.423L416.49 149.562ZM417.963 151.036C418.298 151.036 418.499 150.902 418.499 150.567C418.499 150.366 418.432 150.098 418.03 150.098H417.16V150.969L417.963 151.036Z" fill="white"/>
<path d="M59.1386 162.085C59.2056 161.951 59.0717 161.75 59.0047 161.683C58.8038 161.281 58.2011 161.148 58.2681 160.679C58.3351 160.143 58.9377 159.273 58.2681 159.206C57.9333 159.206 57.3975 159.273 57.3306 158.938C57.2636 158.67 57.3306 158.268 57.5315 158.067C57.6654 157.933 58.0002 157.866 58.0002 157.732C58.0672 157.464 58.3351 157.398 58.469 157.13C58.6699 156.661 58.6029 156.259 58.469 155.79C58.402 155.522 58.469 155.255 58.7368 155.121C59.0047 154.987 59.2726 154.518 59.3395 154.25C59.4735 153.38 59.3395 152.576 59.8753 151.772C60.0092 151.572 59.6074 151.505 59.3395 151.371C59.1386 151.304 59.2726 151.103 59.4735 150.902C59.2726 151.103 59.6074 151.103 59.6744 151.237C59.8083 151.103 60.0092 150.969 60.0092 150.768C60.0092 150.5 60.1431 150.232 60.2101 150.031C60.4779 148.558 60.9467 146.616 61.8172 146.013H61.8842C61.8842 146.214 62.0851 146.415 62.0851 146.616C61.8842 146.616 61.8173 146.549 61.6164 146.683C61.7503 146.817 61.6164 147.085 61.7503 147.085C61.9512 147.085 62.219 147.152 62.4199 147.085C62.6208 147.085 62.7548 147.286 62.9557 147.353C63.3575 147.487 63.2905 146.951 63.4244 146.683C63.1566 146.549 63.2905 146.348 63.2905 146.147C63.2905 146.08 63.2905 145.812 63.2905 145.746C63.3575 145.277 62.7548 144.808 62.8887 144.339C62.9557 144.071 63.0896 143.804 63.0896 143.603C63.0226 142.866 63.3575 142.196 63.1566 141.527C63.4244 141.527 63.7592 141.393 63.9601 141.326C64.3619 141.125 64.228 140.522 64.5628 140.254C64.4289 140.12 64.6298 139.92 64.3619 139.719C64.161 139.585 64.6298 139.518 64.4289 139.317C64.4959 139.317 64.6968 139.317 64.6298 139.25C64.6298 138.982 64.4959 138.714 64.4289 138.513C64.4289 138.379 64.295 138.045 64.5628 138.045C64.7637 138.045 64.8307 137.844 64.9646 137.777C65.0316 137.71 65.1655 137.71 65.1655 137.844C65.1655 138.245 65.4334 138.58 65.4334 138.982C65.4334 139.116 65.5003 139.384 65.7012 139.451C65.9021 139.518 66.103 139.384 66.103 139.183C66.103 138.915 66.0361 138.647 66.0361 138.446C66.0361 138.312 66.237 138.312 66.3709 138.312C66.7727 138.178 66.9736 138.982 67.3754 138.714C67.7102 138.513 67.4423 137.643 67.4423 137.509C67.4423 137.375 67.3084 137.308 67.1745 137.241C66.9066 137.174 66.7727 136.906 66.4379 136.906C66.3709 136.906 66.3039 136.638 66.3039 136.638C66.3709 135.902 65.9691 135.567 65.4334 135.232C65.5003 135.165 65.5003 135.098 65.6343 135.098C65.9691 135.031 66.237 135.366 66.5718 135.299C66.9066 135.232 67.3084 135.165 67.3754 134.83C67.4423 134.562 67.3754 134.228 67.1745 134.027C66.9066 133.759 66.8397 133.491 66.7057 133.156C66.5718 132.821 66.9736 132.486 66.9066 132.085C67.3084 132.018 67.3754 132.419 67.5763 132.62C67.6432 132.687 67.6432 132.821 67.5093 132.888C67.9111 133.089 67.7772 133.759 68.2459 133.826C68.5808 133.893 69.0495 133.96 69.3174 134.161C69.5852 134.294 69.5852 134.83 69.9201 135.031C70.121 135.165 70.3218 135.299 70.5897 135.232C70.8576 135.165 70.5897 134.964 70.5897 134.83C70.5897 134.428 70.1879 134.027 70.1879 133.558C70.1879 132.62 69.9201 131.75 69.6522 130.812C69.5852 130.611 69.3843 130.544 69.2504 130.41C69.1834 130.277 69.1165 130.143 69.0495 130.076C68.8486 129.674 69.1834 129.071 69.3174 128.602C69.6522 128.937 69.5852 129.674 70.054 129.674C70.5897 129.674 71.1924 129.071 71.3263 128.669C71.4603 128.201 71.7281 127.464 71.1924 127.062C71.1254 126.995 70.9245 126.995 70.9245 126.861C70.9245 126.727 71.0585 126.593 71.1254 126.46C71.2594 125.924 71.0585 125.455 70.9245 124.919C71.1924 124.919 71.3263 124.785 71.5272 124.718C71.6612 124.651 71.929 124.651 72.0629 124.451C72.3978 124.651 72.3978 125.12 72.3308 125.522C72.3308 125.656 72.5317 125.589 72.5317 125.589C72.7326 125.187 72.8665 124.718 73.0005 124.317C73.0674 124.049 72.8665 123.446 72.5987 123.044C72.7326 122.977 72.7326 122.776 72.7326 122.709C72.3978 122.04 73.4692 119.763 74.0719 120.767C73.938 120.567 73.938 120.299 73.938 120.098C73.938 119.763 73.871 119.294 74.0719 118.959C74.2058 118.692 74.7416 119.026 74.8085 118.625C74.8755 118.156 75.1434 117.754 75.0764 117.285C75.4782 117.285 75.5451 116.883 75.813 116.683C75.6791 116.549 75.4112 116.415 75.4782 116.281C75.5451 116.08 75.3442 115.879 75.2773 115.812C74.8085 116.08 74.4737 116.549 73.938 116.683C73.6701 116.75 73.3353 116.883 73.2683 117.017C73.1344 117.352 72.8665 117.553 72.5987 117.687C71.1254 118.424 69.8531 119.763 68.5138 120.634C67.9111 121.035 67.1075 121.437 66.4379 121.772C66.3709 121.839 66.3039 122.04 66.4379 122.174C66.3709 122.174 66.237 122.107 66.237 122.241C66.237 122.642 65.9691 122.91 65.7012 122.977C65.3664 123.111 65.0316 123.245 64.9646 123.513C64.8307 123.848 64.5628 124.049 64.295 124.183C64.0271 124.384 63.6923 124.384 63.3575 124.451C62.8887 124.518 62.9557 125.187 62.5539 125.522C61.3485 126.46 60.0762 126.995 59.0047 128C58.8038 128.201 58.8038 128.602 58.536 128.669C58.2011 128.803 58.0002 129.071 57.6654 129.205C56.9957 129.54 55.8573 130.812 55.1877 131.214C54.8529 131.348 54.4511 131.817 54.1832 132.018C53.8484 132.286 53.3127 132.352 52.9109 132.553C52.7769 132.62 52.576 132.62 52.4421 132.553C52.2412 132.486 52.1742 132.419 51.9733 132.352C51.7725 132.286 51.6385 132.152 51.5046 132.018C51.1698 131.75 50.9019 131.482 50.634 131.214C49.9644 130.544 49.4287 129.808 48.692 129.205C48.1563 128.736 47.6206 128.201 47.1518 127.665C46.4822 126.861 45.7456 126.125 45.2098 125.254C45.0759 124.986 44.8081 124.852 44.6741 124.584C44.4732 124.183 44.0714 123.915 43.8705 123.513C43.6027 122.91 43 122.509 43 121.839C43 120.968 43.2679 120.165 43.5357 119.361C43.6027 119.227 43.8036 119.093 43.8705 118.959C44.2723 118.156 44.875 116.883 45.2768 116.08C45.4107 115.812 45.6786 115.611 45.9465 115.611C46.3483 115.678 46.4822 115.276 46.6161 115.008C46.6831 114.808 46.5492 114.54 46.4822 114.272C46.4152 114.071 46.5492 113.87 46.4822 113.602C46.884 113.535 47.2858 112.999 47.5536 113.334C47.7545 113.602 48.0224 113.803 48.3572 113.803C48.6251 113.803 48.5581 113.602 48.759 113.468C48.826 113.401 48.9599 113.468 49.0938 113.468C49.3617 113.401 49.3617 112.933 49.0938 112.866C48.6251 112.732 48.3572 112.263 48.3572 111.861C48.3572 111.258 48.6251 110.254 49.2278 109.919C49.3617 109.852 49.6965 109.718 49.7635 109.785C50.0983 110.053 49.6965 110.79 50.2992 110.857C50.634 110.924 51.1698 110.857 51.1028 110.522C51.0358 110.187 50.5001 109.986 50.5001 109.584C50.5001 108.982 51.3707 109.049 51.5716 108.647C52.0403 107.776 52.1073 106.638 51.7725 105.633C51.7055 105.365 52.1742 105.432 52.3751 105.365C52.7769 105.232 52.643 106.035 53.1118 106.169C53.1787 106.035 53.3796 106.169 53.4466 106.035L53.5136 105.232C53.5805 104.897 53.5805 104.495 53.7144 104.16C53.7814 104.026 53.9153 103.624 54.1162 103.624C54.3171 103.624 54.652 103.356 54.7189 103.089C54.7189 102.821 54.3841 102.62 54.4511 102.285C54.518 101.682 55.3886 101.95 55.6564 101.414C55.7234 101.481 55.7904 101.548 55.7904 101.548C56.1922 101.348 56.3931 100.946 56.8618 100.812C57.0627 100.745 57.1966 100.946 57.3306 100.946C57.3975 100.946 57.6654 100.946 57.5984 100.812C57.5984 100.745 57.5984 100.611 57.5984 100.544C57.5984 100.41 57.5984 100.209 57.5984 100.075C57.6654 99.5395 57.3975 99.2046 57.0627 98.9368C57.1297 98.8698 57.3975 98.535 57.5984 98.535C57.7324 98.3341 58.0002 97.1957 58.7368 97.9323C58.8708 98.0662 59.0717 97.8653 59.2726 97.7984C59.5404 97.7314 59.4065 97.3966 59.4065 97.1957C59.4065 96.9948 59.4065 96.7269 59.4735 96.526C59.5404 96.2582 59.8083 96.1242 60.0762 96.0573L60.0092 95.9903C60.1431 95.9903 60.2101 95.9903 60.344 95.9903C60.8128 95.7894 60.6788 95.3206 60.7458 94.9189L60.8128 94.9858L60.8797 94.9189L60.9467 94.9858C61.0137 94.651 61.3485 94.3831 61.4155 93.9813C61.6833 94.0483 61.5494 93.7135 61.7503 93.6465C61.8173 93.6465 61.9512 93.6465 61.9512 93.5795L61.8842 93.5126C62.219 93.5126 62.353 93.2447 62.4869 92.9769C62.5539 92.8429 62.5539 92.5751 62.5539 92.3742C62.5539 91.8384 62.8217 91.2358 63.0896 90.834C63.2235 90.5661 63.7592 90.1643 64.0941 90.7C64.3619 90.4322 64.0941 89.8965 64.4959 89.8295C64.6298 89.8295 64.7637 90.0973 64.9646 90.1643C65.3664 90.2982 64.7637 90.9009 65.2325 90.9679C65.7012 91.0349 65.6343 90.7 65.7682 90.3652C65.8352 90.1643 66.237 90.2982 66.4379 90.2313C66.7057 90.1643 66.4379 89.7625 66.3039 89.6286L66.237 89.6956C66.237 89.6286 66.3039 89.4947 66.17 89.4947C65.5003 89.4277 65.9691 88.758 66.0361 88.4232C66.0361 88.3562 65.9021 88.3562 65.9021 88.2893C65.9021 88.2223 66.17 88.2223 65.9691 88.0214C66.237 87.9545 66.5718 88.0214 66.6388 87.7536C66.6388 87.6866 66.6388 87.4857 66.7057 87.3518C66.7727 87.3518 66.8396 87.2848 66.8396 87.2848C67.1745 87.4187 67.6432 87.9545 67.7102 87.4857C67.7772 87.1509 67.8441 86.5482 68.112 86.4142C68.179 86.3473 68.4468 86.3473 68.4468 86.2803C68.5138 85.9455 68.179 85.6776 68.112 85.4098C68.112 85.3428 68.179 85.1419 68.2459 85.2089C68.5138 85.2758 68.9156 85.3428 69.0495 85.2089C69.1834 84.8071 68.4468 84.7401 68.112 84.6732L68.179 84.6062C68.179 84.5392 68.112 84.4723 68.045 84.5392C68.112 84.4053 68.112 84.1374 68.3129 84.0705C68.3799 84.0705 68.4468 84.0705 68.4468 84.0705C68.7147 83.8696 68.7816 83.4678 68.5138 83.1999C68.4468 83.066 68.8486 83.1329 68.5808 82.9321C68.7147 82.9321 68.9156 82.999 69.0495 82.9321C69.3843 82.7981 69.7192 82.5972 69.9201 82.3294C70.054 82.0615 70.121 81.7267 70.3888 81.6597C70.6567 81.5928 70.9915 81.5928 71.1924 81.3249C71.0585 81.2579 71.1254 81.124 71.1254 80.9901C71.2594 80.9901 71.3933 80.9231 71.4603 81.057C71.7951 80.7892 71.7281 80.2534 72.0629 80.0525C72.2638 79.9186 72.6656 80.0525 72.7326 79.7847C72.8665 79.182 73.1344 78.7802 73.5362 78.4454C73.7371 78.2445 74.2058 78.2445 74.3398 77.9766C74.4737 77.7757 74.3398 77.4409 74.4067 77.24C74.6076 76.8382 75.0764 76.6373 75.2773 76.2355C75.3442 76.1016 75.2103 75.8337 75.4112 75.6998C75.6791 75.5659 75.9469 75.6998 76.1478 75.9007C76.4157 75.4989 76.2148 75.0971 76.4157 74.6953C76.6166 74.2935 76.8175 73.7578 77.1523 73.5569C77.4871 73.423 77.755 73.289 77.8889 73.0212C78.0229 72.7533 78.2238 72.4855 78.1568 72.1506C78.2238 72.1506 78.3577 72.1506 78.4247 72.0837C78.6255 72.2176 78.6255 72.5524 78.6925 72.4855C79.2282 72.0167 78.6255 71.0792 78.9604 70.4765C79.0943 70.2086 79.5631 70.4765 79.764 70.3426C79.8309 70.2756 80.0318 70.2756 79.9649 70.0747C79.9649 69.8738 80.0318 70.1417 80.1657 70.1417C80.0988 70.4095 80.1658 70.6104 80.4336 70.6774C80.6345 70.7444 80.9024 70.6104 80.9693 70.7444C81.1033 70.9453 80.9024 71.2801 80.9024 71.414C80.9693 71.7488 81.2372 72.0167 81.3711 72.3515C81.4381 72.5524 81.1702 72.6864 81.1702 72.8873C81.3042 73.5569 81.572 74.2266 81.4381 74.8962C81.3711 75.231 81.0363 75.4319 80.9693 75.7668C80.9024 76.1686 81.3711 76.3025 81.3711 76.7712C81.3711 77.1061 81.4381 77.5079 81.0363 77.6418C80.9024 77.7088 80.7684 77.6418 80.6345 77.7757C80.5006 77.9097 80.9024 78.0436 80.7684 78.2445C81.1033 78.3784 81.3711 78.5793 81.4381 78.8472C81.706 79.5168 81.3042 80.6552 82.3086 80.7892C82.3756 81.4588 82.8444 82.0615 82.7774 82.6642C82.6435 83.6017 81.706 85.0749 80.9693 85.7446C80.6345 85.6107 79.9649 86.5482 79.764 86.7491C79.8309 86.816 79.8979 86.883 79.8979 86.883C79.697 87.0169 79.764 87.2848 79.63 87.4187C79.4961 87.6196 79.1613 87.5527 79.0943 87.8205C79.0273 88.3562 78.5586 88.6911 78.2238 89.0929C78.3577 89.2268 78.2238 89.3607 78.1568 89.4277C77.822 90.0973 77.0853 90.1643 76.8844 90.9679C76.8175 91.1688 76.2818 91.1018 76.2818 91.3697C76.2148 91.9054 75.746 92.1063 75.6121 92.5751C75.5451 92.8429 75.2103 92.642 75.0764 92.8429C75.0094 92.9099 75.0764 93.0438 75.0764 93.1108C75.1434 93.4456 74.8085 93.5795 74.5407 93.6465L74.6076 93.7135C74.2728 93.6465 74.2728 94.0483 74.0719 94.1153C74.2058 94.3831 73.938 94.718 73.7371 94.718C73.6031 94.718 73.3353 94.651 73.2683 94.4501C73.2683 94.584 73.0674 94.4501 73.0674 94.584C73.0674 94.9189 73.4023 95.2537 73.2683 95.5215C73.1344 95.7894 72.9335 96.0573 72.7326 96.2582C72.4647 96.526 71.929 96.526 71.7951 96.7269C71.6612 96.9948 71.7281 97.5305 71.5942 97.8653C71.4603 98.3341 70.7236 97.9993 70.7236 98.3341C70.7236 98.535 70.9245 99.0037 70.6567 99.1377C70.3218 99.2716 69.9201 99.4055 69.8531 99.7404C69.7192 100.075 69.2504 100.276 69.3843 100.611C69.3843 100.812 69.2504 100.946 69.1834 101.08C68.9825 101.682 68.3799 102.017 67.9111 102.486C67.8441 102.553 67.9781 102.821 67.9111 103.022C67.7102 103.356 67.1745 103.156 67.1075 103.49C67.0405 103.691 66.9736 104.026 67.1075 104.294C67.3084 104.763 67.9781 104.763 68.3129 105.232C68.5808 105.031 68.4468 104.495 68.3799 104.227C68.3129 103.959 68.7816 103.825 69.1165 103.758C69.1834 103.758 69.2504 103.624 69.2504 103.624C69.5852 103.825 69.7861 104.227 70.1879 104.294C70.5897 104.361 70.6567 103.959 70.7906 103.691C70.9245 103.557 70.5897 103.423 70.5897 103.223C70.5897 103.022 70.5897 102.888 70.7236 102.821C70.9245 102.754 71.1254 102.754 71.3933 102.821C71.6612 102.888 71.6612 103.356 71.7951 103.29C72.3308 103.156 71.6612 102.486 71.862 102.084C71.929 101.95 72.1969 101.883 72.2638 102.017C72.3978 102.218 72.3978 102.486 72.5987 102.553C72.7326 102.553 72.9335 102.553 72.9335 102.486C73.2014 101.883 73.7371 101.883 74.2728 101.816C74.8085 101.682 73.871 100.745 74.3398 100.745H75.2103C75.2773 100.745 75.3442 100.812 75.3442 100.812C75.3442 100.745 75.4782 100.678 75.5451 100.678C75.4782 100.544 75.746 100.276 75.4782 100.142C75.6121 99.9412 75.88 99.9413 76.1478 99.9413C76.4827 99.9413 76.5496 99.2716 76.9514 99.2046C77.1523 99.2046 77.3532 99.4725 77.4871 99.4055C77.755 99.2046 78.0898 99.4055 78.2907 99.2716C78.4247 99.1377 78.6255 98.9368 78.6925 98.7359C78.7595 98.468 78.4916 97.9993 78.8264 97.9323C79.0943 97.8653 79.3622 98.3341 79.63 98.3341C79.8309 98.3341 79.63 97.9993 79.63 97.7984C79.697 97.3966 79.8979 97.1287 80.0988 96.9278C80.2327 96.7939 80.4336 96.9278 80.5675 97.0617C80.6345 97.1287 80.7684 97.1287 80.8354 97.0617C81.1033 96.9278 81.1702 96.593 81.2372 96.3251C81.2372 96.1242 81.1033 95.8564 81.3711 95.7894C81.639 95.6555 81.9738 95.7894 82.1077 95.9903C82.2417 96.1242 81.8399 96.3251 81.8399 96.526C81.8399 96.7269 82.1747 96.9948 82.3756 97.0617C82.5095 97.1287 82.5765 96.8608 82.5765 96.7269C82.5765 96.526 82.3756 96.3251 82.3756 96.1912C82.3756 95.7894 82.5765 95.3206 82.9783 95.2537C83.2462 95.2537 83.4471 95.7224 83.7819 95.6555C84.1167 95.5885 84.1167 95.0528 84.3846 94.9858C84.6524 94.9188 84.7194 94.718 84.7864 94.584C84.8533 94.3831 84.9203 94.1153 85.0542 94.0483C85.2551 93.9813 85.523 93.9144 85.6569 94.0483C85.8578 94.1822 85.9248 94.5171 86.1926 94.651C86.3266 94.718 86.4605 94.718 86.5944 94.718C86.8623 94.718 87.1301 94.718 87.1971 94.3831C87.2641 94.1822 87.331 94.0483 87.465 93.9813C87.5989 93.9144 87.6659 93.9144 87.7998 93.7804C88.0677 94.0483 88.8043 93.8474 88.9382 93.6465C89.0052 93.5126 89.4739 93.3787 89.4739 93.2447C89.4739 92.9099 90.0097 92.709 90.3445 92.5751C90.5454 92.5081 91.215 92.642 91.4829 92.709C91.4829 92.709 91.349 92.8429 91.4159 92.8429C91.4159 92.9769 91.6168 92.9769 91.6838 92.9769C91.6168 93.3786 91.9516 93.5795 92.1525 93.8474C92.6213 94.584 93.157 95.3876 93.5588 96.1242C94.0945 96.9948 94.5633 97.9993 95.099 98.8028C95.4338 99.4055 95.9696 100.075 96.2374 100.745C96.2374 100.678 96.2374 100.812 96.2374 100.745C96.5723 101.682 97.041 102.687 96.7732 103.691C96.6392 104.428 95.8356 104.897 95.3669 105.566C95.166 105.901 95.0321 106.236 94.8981 106.504C94.7642 106.772 94.5633 106.906 94.3624 107.107C94.0276 107.374 93.6258 107.776 93.6258 108.245C93.6258 108.513 93.4249 108.714 93.3579 108.848C92.4874 110.12 90.8802 113.066 89.9427 114.272C89.6748 114.674 88.4025 116.95 88.2016 117.352C88.0007 117.754 87.8668 118.156 87.465 118.424C87.6659 118.625 87.331 118.825 87.331 118.959C87.2641 119.227 87.1301 119.562 86.7953 119.696C86.9962 119.897 86.6614 120.031 86.6614 120.232C86.5944 120.701 86.1926 121.035 85.9248 121.504C85.7239 121.906 85.389 122.241 85.2551 122.642C85.0542 123.044 84.8533 123.513 84.6524 123.915L84.5855 124.049C83.8488 125.388 83.0453 126.727 82.5095 128.268C82.4426 128.468 82.1077 128.669 82.0408 128.87C81.9738 129.138 81.639 129.272 81.706 129.607C81.706 129.942 81.3042 130.076 81.2372 130.344C81.1702 130.611 81.1033 130.946 80.9024 131.214C80.8354 131.281 80.8354 131.348 80.7684 131.415L79.8309 133.223C79.8309 133.357 79.8979 133.558 79.8979 133.625C79.8979 133.759 79.63 134.027 79.5631 134.227C79.4961 134.495 79.2282 134.83 79.0943 134.964C78.9604 135.165 78.3577 136.169 78.2238 136.638C78.0898 137.107 76.7505 139.652 76.5496 139.92C76.4157 140.12 74.8755 143.268 74.8085 143.469C74.7416 143.67 74.8085 143.87 74.7416 144.272L73.3353 148.424C73.2683 148.625 73.1344 148.692 73.0674 148.826C73.0005 148.96 72.5317 150.701 72.3978 150.902C72.2638 151.103 72.1969 151.103 72.1299 151.438C72.1299 151.705 71.8621 153.179 71.7281 153.246C71.5942 153.313 71.3263 153.514 71.3263 153.647C71.3263 153.781 71.1924 154.116 71.0585 154.317C70.9915 154.518 70.4558 154.853 70.7236 155.723C70.9245 156.594 70.3218 156.527 70.2549 156.929C70.1879 157.331 69.7861 157.331 70.054 158C70.3218 158.67 69.987 158.737 69.987 158.938C69.987 159.139 69.5852 161.683 69.5183 162.018C69.3843 162.42 69.5183 163.023 69.5183 163.424C69.4513 164.027 69.3174 164.697 68.9825 165.232C69.1834 165.299 68.9156 165.5 69.0495 165.634C68.7816 165.902 68.7816 166.237 68.7147 166.572C68.6477 166.84 68.5808 167.241 68.6477 167.643C68.6477 167.844 68.7816 168.246 68.5138 168.447C68.7147 168.581 68.5808 168.849 68.5808 168.916C68.5808 169.652 68.5807 170.322 68.4468 171.125C68.2459 172.13 68.3799 173.134 68.3799 174.139C68.3799 174.273 68.3129 174.541 68.4468 174.608C68.2459 174.942 68.4468 175.344 68.4468 175.679C68.4468 176.349 68.5138 177.085 68.6477 177.755C68.7147 178.358 68.9825 179.027 69.1165 179.63C69.1834 179.965 68.9825 180.367 68.9825 180.701C69.1165 181.974 69.7861 183.112 69.9201 184.385C69.987 184.987 70.6567 185.188 70.7236 185.657C70.7906 185.925 70.6567 186.126 70.5227 186.394C70.4558 186.527 70.6567 186.728 70.7236 186.862C70.8576 187.13 71.3933 186.996 71.5272 187.331C71.5942 187.532 71.3263 187.666 71.2594 187.8C71.1924 188.068 71.7281 188.269 71.6612 188.603C71.6612 188.737 71.7281 188.871 71.7281 188.938C71.8621 189.273 72.4647 189.139 72.5317 189.541C72.6656 189.943 72.9335 190.211 73.0674 190.612C73.2014 190.947 73.4023 192.554 72.9335 192.42C71.996 192.219 71.1924 191.416 71.2594 190.545C71.3263 190.01 70.7236 189.608 70.4558 189.206C69.8531 188.335 69.2504 188.068 68.9825 187.063C68.9156 186.929 68.7147 187.063 68.6477 186.929C68.5808 186.996 68.3129 186.996 68.3799 187.063C68.4468 187.264 68.2459 187.264 68.2459 187.264C67.5093 187.532 66.9736 186.527 66.6388 185.925C66.4379 185.59 66.3039 185.255 65.9691 185.121C65.3664 184.786 65.2994 184.117 64.7637 183.715C64.4289 183.447 64.4289 182.777 64.4959 182.175C64.5628 181.706 63.8262 181.773 63.8262 181.438C63.8262 181.237 63.6253 181.237 63.6253 181.103C63.4914 181.304 63.2905 180.969 63.1566 181.103C63.0896 180.969 63.1566 180.835 63.0896 180.701C63.0226 180.568 62.8217 180.434 62.6878 180.3C61.8842 179.228 61.5494 178.09 60.9467 176.951C60.8797 176.75 61.1476 176.416 60.8797 176.215C60.8128 176.349 60.6788 176.349 60.6788 176.282C60.4779 176.014 60.0092 176.148 60.0092 175.88C60.0092 175.612 59.8083 175.21 59.6744 175.21C59.4065 175.143 59.1386 175.009 58.8708 174.942C58.6699 174.875 58.6699 174.273 58.3351 174.273C58.0672 174.273 57.8663 174.139 57.8663 173.871C57.9333 173.871 58.0002 173.871 58.0002 173.871C58.1342 173.737 58.3351 173.536 58.1342 173.335C58.0002 173.134 57.7324 173.134 57.5315 173.067C57.2636 173 57.4645 172.733 57.4645 172.532C57.4645 172.197 57.1297 172.063 57.1297 171.795C57.1297 171.594 56.8618 171.393 57.0627 171.259C57.2636 171.058 57.1297 170.791 57.1966 170.59C57.2636 170.121 56.6609 169.853 56.7949 169.384C56.7949 169.317 56.9957 169.183 57.2636 169.25C57.3975 169.317 57.3975 168.983 57.3975 168.983C57.3975 168.313 57.1297 167.71 56.9957 167.041C56.9288 166.706 57.1297 166.304 57.1297 165.969C57.1297 165.032 57.2636 164.027 56.7949 163.157C56.7279 163.023 56.594 162.889 56.527 162.755C56.46 162.42 56.8618 162.42 57.0627 162.286H57.6654C57.7324 162.353 57.7324 162.487 57.8663 162.554C57.9333 162.621 58.0672 162.621 58.1342 162.621C58.2011 162.42 59.0047 162.353 59.1386 162.085Z" fill="white"/>
</svg>
