<svg xmlns="http://www.w3.org/2000/svg" width="470" height="262" fill="none"><g clip-path="url(#a)"><path fill="#2C2C2C" fill-rule="evenodd" d="M299.591 40H171.242C160.839 40 157 43.84 157 54.247v125.588c0 1.178.047 2.272.152 3.286l.056.566c.202 2.074.401 4.116 2.338 6.413.206.246 2.363 1.851 2.363 1.851l.595.293c.867.43 1.593.79 2.667 1.222l63.2 26.479c3.281 1.504 4.653 2.09 7.036 2.043h.019c2.383.047 3.755-.539 7.036-2.043l63.2-26.479c1.073-.432 1.798-.791 2.664-1.22l.597-.295s2.158-1.605 2.364-1.851c1.936-2.297 2.135-4.338 2.338-6.413v-.005l.001-.004v-.005l.055-.552c.104-1.014.152-2.108.152-3.286V54.247c0-10.408-3.84-14.247-14.242-14.247Zm-94.413 157.055h60.763l-31.014 10.228-29.749-10.228Zm85.787-30.503.029-.29.029-.319V165.248l-.029-.318-.029-.29-.058-.29-.058-.29-.058-.26-.085-.261-.087-.261-.116-.231-.145-.261-.143-.232-.174-.26-.172-.232-.202-.203-.201-.232-.232-.203-.23-.203-.231-.144-.231-.174-.23-.145-.259-.145-.261-.145-.288-.144-.288-.116-.288-.145-.318-.114-.259-.087-.259-.087-.29-.087-.259-.087-.288-.087-.288-.087-.29-.058-.317-.087-.288-.086-.317-.058-.317-.088-.317-.086-.318-.087-.288-.058-.259-.087-.261-.058-.23-.087-.23-.058-.346-.115-.319-.116-.288-.116-.23-.145-.26-.145-.201-.203-.116-.174-.143-.318-.03-.377v-.058l.03-.289.114-.261.173-.261.26-.232.202-.116.231-.116.258-.057.29-.059.317-.057H282.111l.259.029.29.028.288.03.288.058.287.058.29.058.288.086.288.087.317.087.232.116.259.087.23.116.261.116.23.115.259.116.232.145.258.116.232.174.23.145.259.145.232.173.172-.231.145-.232.172-.232.174-.231.172-.261.145-.232.173-.232.173-.231.144-.232.173-.232.173-.232.146-.232.171-.26.174-.232.173-.232.144-.231.172-.232-.23-.174-.23-.174-.231-.174-.231-.144-.26-.174-.23-.145-.259-.145-.261-.145-.23-.116-.259-.144-.29-.116-.259-.116-.259-.116-.259-.087-.289-.116-.26-.058-.259-.087-.289-.087-.259-.058-.288-.058-.288-.058-.261-.057-.288-.058-.317-.029-.288-.058-.319-.029h-.287l-.317-.029-.317-.029h-1.241l-.288.029-.288.029-.29.029-.287.029-.26.058-.287.058-.261.057-.259.058-.23.058-.261.087-.288.116-.288.087-.261.116-.259.145-.259.116-.26.144-.23.145-.231.174-.231.174-.201.145-.232.203-.201.232-.203.202-.201.232-.174.232-.172.232-.145.26-.143.261-.116.26-.116.261-.114.261-.058.26-.087.261-.058.261-.058.261-.029.29-.028.26-.029.29V157.66l.029.319.028.289.029.29.058.261.058.29.087.231.085.261.087.232.116.201.145.26.143.232.145.203.172.203.174.203.201.202.203.203.201.174.232.145.23.174.259.145.231.144.289.145.258.145.29.116.288.116.288.116.317.116.261.086.259.087.259.087.288.058.26.087.289.087.287.058.29.087.288.058.317.087.288.058.317.087.29.057.288.087.259.058.26.087.23.058.202.058.345.145.29.116.259.116.23.115.232.174.201.174.145.203.116.29.028.347v.058l-.028.29-.087.26-.116.232-.172.203-.232.174-.201.116-.232.087-.259.058-.259.058-.29.058-.317.028h-.633l-.317-.028h-.288l-.29-.058-.317-.029-.288-.058-.288-.058-.29-.058-.258-.087-.289-.087-.287-.087-.261-.116-.259-.087-.259-.116-.261-.115-.259-.116-.23-.145-.261-.116-.23-.145-.259-.174-.231-.144-.26-.174-.231-.174-.259-.174-.23-.174-.174.232-.201.203-.174.232-.201.231-.174.203-.172.232-.203.232-.172.202-.203.232-.172.203-.203.232-.172.231-.173.203-.202.232-.174.232-.201.203-.173.231.23.203.202.174.231.174.231.173.23.174.23.174.232.145.23.145.261.145.23.144.259.145.261.116.259.143.259.116.26.116.289.116.259.087.288.086.26.116.288.087.288.087.259.058.29.087.288.058.288.058.288.058.29.058.288.029.287.058.317.029.29.029.288.029h.317l.288.029h1.211l.289-.029.316-.029.29-.029.259-.029.288-.029.29-.058.259-.058.259-.058.288-.058.261-.087.287-.087.288-.087.288-.116.29-.116.259-.144.259-.116.261-.145.23-.174.23-.143.232-.174.201-.173.231-.203.172-.174.203-.203.172-.203.145-.231.173-.232.144-.232.145-.232.114-.26.116-.232.116-.261.087-.29.056-.26.087-.29.058-.29.029-.318Zm-20.486 5.502h.578v-4.778H259.751v-3.592h10.036V159.196H259.751v-3.448H270.912V150.968H254.244V172.054H270.479Zm-21.07 0h.576V150.968H244.074l-.145.232-.143.261-.174.23-.145.261-.143.231-.145.261-.172.23-.145.261-.144.232-.144.231-.173.259-.144.232-.145.261-.144.232-.172.259-.146.231-.142.232-.146.259-.144.232-.172.26-.145.232-.145.259-.143.232-.174.261-.143.23-.145.231-.145.261-.172.232-.145.261-.143.23-.145.261-.172.231-.144.259-.145.232-.143-.232-.145-.259-.174-.231-.143-.261-.145-.23-.143-.261-.145-.232-.174-.261-.143-.231-.145-.23-.143-.261-.145-.232-.174-.259-.143-.232-.145-.26-.143-.232-.145-.259-.174-.232-.143-.231-.144-.259-.145-.232-.172-.261-.145-.232-.143-.259-.145-.231-.145-.232-.172-.261-.145-.23-.143-.261-.145-.231-.145-.261-.172-.23-.145-.261-.143-.232H227.923V172.054H233.403V159.644l.172.231.145.263.172.231.145.261.174.232.143.261.174.233.143.261.174.232.145.26.172.232.145.263.172.231.145.261.172.232.145.262.173.232.172.261.145.231.172.263.145.231.174.261.143.232.174.262.143.232.174.261.145.232.172.26.145.234.172.26.145.232.172.261.145.233.173.261h.115l.145-.231.172-.263.144-.232.174-.232.143-.26.174-.232.143-.234.145-.26.174-.232.143-.232.174-.233.143-.261.174-.231.145-.232.143-.263.174-.231.143-.232.173-.261.144-.232.173-.233.145-.261.144-.232.173-.231.144-.263.173-.232.145-.231.172-.232.145-.262.143-.232.174-.232.145-.26.172-.232.145-.232.172-.263.144-.231V172.054H249.409Zm-33.261-8.951.087.262.116.261H211.478l.114-.261.087-.262.116-.29.116-.261.085-.262.115-.261.116-.29.115-.262.086-.261.116-.26.116-.263.085-.289.116-.261.116-.262.087-.261.114-.261.116-.291.116-.261.085-.261.116-.262.116-.29.087-.262.114-.261.116.261.087.262.114.29.116.262.087.261.115.261.115.291.086.261.116.261.116.262.085.261.116.289.088.263.113.26.116.261.088.262.115.29.114.261.087.262.116.261.114.29Zm8.855 8.951h.577l-.116-.261-.116-.261-.114-.26-.087-.29-.116-.259-.116-.26-.114-.261-.116-.261-.115-.261-.114-.289-.116-.261-.088-.261-.114-.26-.115-.261-.116-.261-.116-.289-.114-.261-.116-.261-.116-.261-.085-.26-.116-.261-.116-.29-.116-.261-.114-.26-.116-.261-.116-.261-.114-.261-.087-.289-.116-.261-.114-.261-.116-.26-.116-.261-.115-.261-.115-.289-.115-.261-.087-.261-.114-.261-.116-.26-.116-.261-.116-.29-.115-.26-.116-.261-.115-.261-.086-.26-.115-.261-.116-.259-.114-.29-.116-.26-.116-.262-.116-.26-.114-.261-.087-.261-.116-.289-.114-.261-.116-.261-.116-.26-.116-.261-.114-.261-.116-.29-.087-.26-.114-.261-.116-.261-.115-.26-.114-.261-.116-.29-.116-.26-.116-.261-.085-.261-.116-.26-.116-.261-.114-.29-.116-.261-.116-.26-.116-.261-.114-.261-.087-.26-.116-.29-.114-.261-.116-.261-.116-.26H211.304l-.114.26-.116.261-.116.261-.087.29-.114.26-.116.261-.116.261-.114.26-.116.261-.116.29-.116.261-.085.26-.116.261-.116.261-.114.26-.116.29-.116.261-.114.26-.116.261-.087.261-.115.26-.115.29-.115.261-.116.261-.115.26-.115.261-.116.261-.087.289-.114.261-.116.261-.116.26-.114.262-.116.26-.116.29-.114.259-.087.261-.116.26-.116.261-.114.261-.116.26-.116.29-.114.261-.116.26-.087.261-.115.261-.115.261-.116.289-.115.261-.115.261-.115.26-.116.261-.087.261-.114.289-.116.261-.116.261-.114.261-.116.26-.116.261-.114.29-.087.261-.116.26-.116.261-.114.261-.116.261-.116.289-.114.261-.116.261-.087.26-.116.261-.114.261-.116.289-.116.261-.114.261-.115.261-.116.26-.087.259-.115.29-.115.26-.116.261-.114.261H208.189l.116-.261.087-.261.115-.26.115-.29.087-.259.116-.26.114-.261.087-.261.116-.261.115-.26.086-.261.115-.29.116-.26.087-.261.114-.261H218.052l.116.261.086.261.116.26.115.29.086.261.116.26.116.261.085.261.116.261.116.26.085.259.116.29.116.26.087.261.114.261H225.003Zm-25.208-2.519.232-.174.201-.173V159.775H190.711V164.003H194.922v2.636l-.231.145-.202.115-.259.116-.232.116-.259.116-.259.058-.288.087-.29.058-.288.058-.288.029-.317.029-.319.029H191.028l-.317-.029-.288-.029-.288-.058-.29-.058-.288-.087-.288-.087-.261-.116-.258-.116-.26-.116-.231-.144-.23-.145-.23-.174-.232-.174-.201-.174-.174-.202-.201-.203-.174-.203-.172-.232-.145-.232-.145-.231-.143-.261-.115-.261-.116-.29-.086-.231-.087-.261-.058-.26-.058-.261-.058-.261-.029-.29-.028-.261-.027-.289v-.667l.027-.289.028-.29.059-.319.057-.26.058-.288.087-.29.115-.26.086-.261.116-.261.145-.232.143-.26.145-.232.143-.203.174-.232.201-.203.174-.202.201-.174.203-.174.201-.173.232-.145.23-.146.231-.144.259-.116.259-.116.259-.087.261-.087.259-.058.288-.058.261-.029.288-.028h.605l.318.028.317.029.288.029.288.058.288.058.261.058.259.087.259.087.232.087.23.116.231.116.259.145.231.144.231.145.23.145.23.174.232.145.23.202.232.174.172-.231.203-.203.172-.232.203-.232.172-.231.173-.203.202-.232.173-.232.202-.231.173-.204.172-.231.203-.232.172-.203.174-.232.201-.231.174-.232.201-.202.174-.232-.23-.174-.232-.203-.23-.174-.232-.174-.23-.145-.23-.173-.26-.145-.231-.145-.258-.145-.232-.145-.259-.116-.259-.144-.261-.116-.259-.116-.259-.116-.261-.087-.23-.087-.259-.058-.26-.087-.26-.058-.259-.058-.26-.057-.288-.058-.288-.058-.261-.029-.317-.058-.288-.029h-.288l-.317-.029-.319-.029h-1.238l-.29.029-.288.029-.288.029-.288.029-.29.058-.288.029-.288.058-.259.086-.289.058-.259.087-.259.058-.261.116-.288.087-.23.087-.288.145-.261.116-.259.116-.259.144-.26.145-.259.145-.23.145-.232.145-.23.174-.232.144-.23.174-.201.174-.232.203-.201.173-.203.204-.201.202-.174.203-.201.202-.174.204-.172.231-.174.232-.171.232-.146.231-.144.232-.143.232-.145.232-.145.261-.114.26-.116.261-.116.261-.114.26-.116.29-.087.261-.087.289-.085.261-.058.29-.087.289-.058.261-.029.29-.057.288-.03.319-.027.289v.29l-.029.318V162.178l.029.289.027.29.03.29.028.26.058.29.029.261.058.289.087.261.058.29.085.26.058.261.116.261.087.232.114.26.116.261.116.261.114.261.145.231.145.261.143.232.144.231.173.232.144.232.174.203.172.232.174.202.201.203.203.203.201.174.203.202.201.174.203.174.23.174.23.173.232.175.23.144.232.145.259.145.229.143.262.145.258.116.259.116.261.115.288.116.259.087.259.116.261.087.288.058.259.087.289.058.259.058.288.058.288.058.29.029.288.029.288.029.317.029.288.028H191.778l.316-.028.29-.029.317-.029.288-.029.317-.029.288-.029.29-.058.288-.058.259-.058.29-.058.258-.087.288-.087.259-.087.261-.087.259-.087.259-.116.29-.115.259-.116.288-.116.259-.145.26-.114.259-.145.259-.145.261-.144.23-.145.232-.145.23-.174.23-.145.232-.174.201-.145Zm-9.044-66.276h12.5v-9.668h-12.5V73.853h12.997v-9.668h-23.611v69.777h23.809v-9.668h-13.195v-21.035Zm89.528 17.845v-15.75h10.416v16.247c0 8.674-4.264 12.959-12.895 12.959h-5.259c-8.629 0-12.896-4.285-12.896-12.959V76.545c0-8.673 4.267-12.959 12.896-12.959h5.16c8.629 0 12.795 4.187 12.795 12.859V90.7h-10.415V77.043c0-2.791-1.29-4.086-3.968-4.086h-1.786c-2.778 0-4.068 1.295-4.068 4.086v44.061c0 2.791 1.29 4.086 4.068 4.086h1.985c2.677 0 3.967-1.295 3.967-4.086Zm-36.859 12.858h10.615V64.185H243.42v69.777Zm-19.37-34.688c2.679 0 3.967-1.297 3.967-4.088V77.64c0-2.79-1.288-4.086-3.967-4.086h-4.366v25.719h4.366Zm-14.98-35.09h16.665c8.631 0 12.896 4.286 12.896 12.96v18.541c0 8.672-4.265 12.957-12.896 12.957h-6.051v25.32H209.07V64.185Z" clip-rule="evenodd"/></g><defs><clipPath id="a"><path fill="#fff" d="M157 40h156.833v181.99H157z"/></clipPath></defs></svg>