<svg width="58" height="58" xmlns="http://www.w3.org/2000/svg"><path d="M58 27.163v.967H30.063v-7.443h21.364c3.576-.194 6.573 2.9 6.573 6.476zm-8.7-16.336v7.443H30.063v-7.443H49.3zm0-.774V.58h-9.473l9.473 9.473zm3.963 19.43c2.514 0 4.737 2.127 4.737 4.737 0 2.513-2.127 4.737-4.737 4.737-2.513 0-4.736-2.127-4.736-4.737.096-2.707 2.126-4.737 4.736-4.737zM27.067 0h.773v27.937h-7.443V6.573c0-3.576 2.9-6.573 6.67-6.573zM10.633 8.797h7.444v19.14h-7.444V8.797zm-.676 0H.483v9.57l9.474-9.57zm19.43-4.06C29.387 2.223 31.513 0 34.123 0a4.744 4.744 0 0 1 4.737 4.737c0 2.513-2.127 4.736-4.737 4.736-2.706-.096-4.736-2.126-4.736-4.736zM0 30.837v-.967h27.937v7.443H6.573c-3.576 0-6.573-2.9-6.573-6.476zm8.313 16.24v-7.444h19.624v7.444H8.313zm0 .87v9.473h9.474l-9.474-9.473zM4.737 28.42C2.223 28.42 0 26.293 0 23.683a4.744 4.744 0 0 1 4.737-4.736c2.513 0 4.736 2.126 4.736 4.736-.096 2.61-2.126 4.737-4.736 4.737zm26.196 29.483h-.773V29.967h7.443v21.46c0 3.576-2.9 6.476-6.67 6.476zm16.434-8.12h-7.444V29.967h7.444v19.816zm.676.097h9.474v-9.473l-9.474 9.473zm-19.43 3.383c0 2.514-2.126 4.737-4.736 4.737a4.744 4.744 0 0 1-4.737-4.737c0-2.513 2.127-4.736 4.737-4.736a4.744 4.744 0 0 1 4.736 4.736z" fill="#343A40" fill-rule="nonzero"/></svg>
