<?xml version="1.0" encoding="UTF-8"?>
<svg width="58px" height="58px" viewBox="0 0 58 58" version="1.1" xmlns="http://www.w3.org/2000/svg" xmlns:xlink="http://www.w3.org/1999/xlink">
    <!-- Generator: Sketch 52.5 (67469) - http://www.bohemiancoding.com/sketch -->
    <title>logo</title>
    <desc>Created with Sketch.</desc>
    <g id="Page-1" stroke="none" stroke-width="1" fill="none" fill-rule="evenodd">
        <g id="Desktop-HD" transform="translate(-1224.000000, -50.000000)" fill="#495057" fill-rule="nonzero">
            <g id="jefflupinski-logo" transform="translate(1224.000000, 50.000000)">
                <path d="M58,27.1633333 L58,28.13 L30.0633333,28.13 L30.0633333,20.6866667 L51.4266667,20.6866667 C55.0033333,20.4933333 58,23.5866667 58,27.1633333 Z M49.3,10.8266667 L49.3,18.27 L30.0633333,18.27 L30.0633333,10.8266667 L49.3,10.8266667 Z M49.3,10.0533333 L49.3,0.58 L39.8266667,0.58 L49.3,10.0533333 Z M53.2633333,29.4833333 C55.7766667,29.4833333 58,31.61 58,34.22 C58,36.7333333 55.8733333,38.9566667 53.2633333,38.9566667 C50.75,38.9566667 48.5266667,36.83 48.5266667,34.22 C48.6233333,31.5133333 50.6533333,29.4833333 53.2633333,29.4833333 Z M27.0666667,0 L27.84,0 L27.84,27.9366667 L20.3966667,27.9366667 L20.3966667,6.57333333 C20.3966667,2.99666667 23.2966667,0 27.0666667,0 Z M10.6333333,8.79666667 L18.0766667,8.79666667 L18.0766667,27.9366667 L10.6333333,27.9366667 L10.6333333,8.79666667 Z M9.95666667,8.79666667 L0.483333333,8.79666667 L0.483333333,18.3666667 L9.95666667,8.79666667 Z M29.3866667,4.73666667 C29.3866667,2.22333333 31.5133333,0 34.1233333,0 C36.7333333,0 38.86,2.12666667 38.86,4.73666667 C38.86,7.25 36.7333333,9.47333333 34.1233333,9.47333333 C31.4166667,9.37666667 29.3866667,7.34666667 29.3866667,4.73666667 Z M0,30.8366667 L0,29.87 L27.9366667,29.87 L27.9366667,37.3133333 L6.57333333,37.3133333 C2.99666667,37.3133333 0,34.4133333 0,30.8366667 Z M8.31333333,47.0766667 L8.31333333,39.6333333 L27.9366667,39.6333333 L27.9366667,47.0766667 L8.31333333,47.0766667 Z M8.31333333,47.9466667 L8.31333333,57.42 L17.7866667,57.42 L8.31333333,47.9466667 Z M4.73666667,28.42 C2.22333333,28.42 0,26.2933333 0,23.6833333 C0,21.0733333 2.12666667,18.9466667 4.73666667,18.9466667 C7.25,18.9466667 9.47333333,21.0733333 9.47333333,23.6833333 C9.37666667,26.2933333 7.34666667,28.42 4.73666667,28.42 Z M30.9333333,57.9033333 L30.16,57.9033333 L30.16,29.9666667 L37.6033333,29.9666667 L37.6033333,51.4266667 C37.6033333,55.0033333 34.7033333,57.9033333 30.9333333,57.9033333 Z M47.3666667,49.7833333 L39.9233333,49.7833333 L39.9233333,29.9666667 L47.3666667,29.9666667 L47.3666667,49.7833333 Z M48.0433333,49.88 L57.5166667,49.88 L57.5166667,40.4066667 L48.0433333,49.88 Z M28.6133333,53.2633333 C28.6133333,55.7766667 26.4866667,58 23.8766667,58 C21.2666667,58 19.14,55.8733333 19.14,53.2633333 C19.14,50.75 21.2666667,48.5266667 23.8766667,48.5266667 C26.4866667,48.5266667 28.6133333,50.6533333 28.6133333,53.2633333 Z" id="logo"></path>
            </g>
        </g>
    </g>
</svg>